<?xml version="1.0" standalone="no"?>
<!DOCTYPE svg PUBLIC "-//W3C//DTD SVG 20010904//EN"
 "http://www.w3.org/TR/2001/REC-SVG-20010904/DTD/svg10.dtd">
<svg version="1.0" xmlns="http://www.w3.org/2000/svg"
 width="1920.000000pt" height="1358.000000pt" viewBox="0 0 1920.000000 1358.000000"
 preserveAspectRatio="xMidYMid meet">

<g transform="translate(0.000000,1358.000000) scale(0.100000,-0.100000)"
fill="#000000" stroke="none">
<path d="M0 6790 l0 -6790 6479 0 6480 0 15 30 15 31 -37 -5 c-20 -3 -29 -3
-19 0 9 3 17 13 17 21 0 18 14 17 200 -13 58 -9 159 -17 225 -18 119 -1 121 0
197 37 121 59 183 72 338 71 130 -1 139 -2 255 -42 67 -22 151 -43 191 -47 64
-6 80 -3 179 29 59 20 113 36 120 36 7 0 60 14 119 31 95 27 117 30 182 24 67
-7 79 -5 126 19 29 14 89 53 133 85 44 33 125 90 179 128 55 37 132 101 172
141 40 39 75 72 79 72 10 0 90 -55 98 -67 4 -7 15 -13 22 -13 32 0 11 -39 -62
-114 -62 -63 -92 -86 -152 -113 -42 -19 -119 -55 -171 -80 -239 -113 -341
-154 -437 -173 -54 -11 -141 -31 -193 -44 l-95 -24 2273 -1 2272 -1 0 6790 0
6790 -9600 0 -9600 0 0 -6790z m14091 3909 c13 -6 45 -9 76 -7 42 4 57 1 66
-12 9 -12 28 -16 72 -17 140 -2 205 -6 205 -15 0 -4 11 -6 24 -2 18 4 25 1 29
-15 4 -15 13 -21 35 -21 33 0 48 -15 44 -42 -4 -21 34 -26 40 -6 3 7 9 8 18 3
11 -7 10 -10 -2 -19 -8 -6 -21 -28 -29 -49 -12 -33 -11 -39 5 -55 17 -16 19
-16 41 13 26 31 37 28 50 -12 5 -18 2 -23 -13 -23 -26 0 -34 -24 -20 -54 9
-22 7 -28 -18 -49 -25 -22 -27 -27 -14 -42 12 -14 12 -18 -1 -26 -19 -12 -46
-11 -70 1 -10 6 -19 7 -19 2 0 -14 23 -32 42 -32 27 0 22 -13 -12 -32 -35 -20
-39 -45 -7 -50 20 -3 19 -5 -14 -26 -22 -13 -40 -33 -44 -49 -3 -15 -14 -33
-23 -40 -16 -12 -16 -14 2 -28 11 -8 16 -21 13 -30 -8 -19 -21 -19 -41 1 -19
19 -61 15 -61 -6 0 -8 9 -16 19 -18 10 -2 30 -17 43 -33 14 -16 33 -29 44 -29
23 0 25 -13 4 -30 -12 -10 -20 -8 -42 10 -15 12 -31 29 -35 38 -5 12 -7 10 -7
-10 -1 -24 -21 -53 -21 -30 0 5 -39 10 -86 10 -48 0 -100 6 -116 13 -26 11
-32 10 -40 -4 -13 -24 -31 -21 -23 3 5 15 2 20 -12 21 -24 2 -25 2 -45 -6 -13
-5 -18 -2 -18 9 0 14 -4 15 -20 6 -21 -11 -28 -40 -10 -40 6 0 10 -4 10 -10 0
-5 -8 -10 -17 -10 -14 0 -13 -3 6 -16 18 -13 20 -18 10 -25 -41 -26 -153 13
-155 54 -3 37 15 36 58 -5 44 -41 60 -44 35 -4 -15 22 -15 25 3 41 26 23 25
35 -1 35 -15 0 -19 -5 -15 -15 4 -12 2 -13 -13 -3 -11 6 -17 18 -14 25 3 7 -2
13 -11 13 -9 0 -16 -6 -14 -14 5 -24 -14 -19 -26 6 -9 17 -19 22 -38 20 -32
-4 -46 14 -17 23 15 5 18 10 10 18 -7 7 -14 7 -25 -2 -12 -10 -16 -9 -24 5 -9
16 -14 16 -63 -8 -30 -15 -74 -31 -99 -38 -115 -29 -176 -42 -190 -42 -8 1
-44 1 -80 2 -36 1 -75 6 -88 13 -17 8 -25 8 -34 -1 -7 -7 -26 -12 -44 -12 -26
0 -33 5 -38 25 -11 42 -29 30 -22 -15 6 -41 -3 -51 -24 -25 -13 15 -55 22 -46
7 2 -4 1 -14 -5 -22 -6 -11 -9 -8 -9 13 0 20 -5 27 -20 27 -11 0 -20 -7 -20
-15 0 -9 -11 -20 -24 -25 -18 -6 -27 -20 -32 -47 -5 -21 -7 -44 -5 -52 1 -7
-4 -11 -11 -9 -7 3 -13 10 -13 16 0 7 -4 11 -10 10 -5 -2 -9 -6 -8 -9 1 -4 -8
-10 -22 -13 -13 -3 -25 -14 -27 -23 -2 -10 -12 -18 -23 -18 -13 0 -22 -10 -29
-35 -12 -46 -11 -45 -41 -26 -14 9 -25 12 -25 6 0 -5 -5 -10 -11 -10 -5 0 -8
4 -5 9 4 5 -6 18 -21 30 l-28 20 18 32 c12 22 15 35 7 43 -18 18 -11 32 23 44
35 13 88 56 104 86 14 25 83 45 133 39 21 -3 50 -3 64 1 l25 6 -25 47 c-29 55
-25 77 12 70 20 -3 24 -1 19 12 -12 31 -10 36 23 39 20 2 32 8 29 15 -6 20
-35 19 -102 -2 -35 -12 -76 -21 -90 -21 -27 0 -75 26 -75 41 0 16 25 9 44 -12
24 -28 80 -18 120 22 26 27 27 29 8 29 -12 0 -24 -4 -27 -10 -8 -12 -55 -13
-55 -1 0 14 23 28 57 35 17 4 34 14 37 22 3 9 15 14 27 12 23 -3 29 6 47 60
10 30 9 32 -9 27 -11 -4 -26 -1 -34 5 -20 16 -45 5 -45 -19 0 -27 -15 -34 -40
-19 -28 18 -29 78 0 78 14 0 20 7 20 24 0 33 17 43 74 45 57 2 67 6 59 27 -4
10 -14 14 -29 11 -13 -2 -24 -1 -24 3 0 10 26 20 49 20 10 0 31 13 47 30 16
16 39 30 52 30 12 0 22 4 22 9 0 5 23 12 52 15 33 5 57 14 65 25 8 13 31 20
73 24 34 4 67 10 73 14 6 4 22 8 35 9 13 2 27 6 30 9 12 11 430 -3 453 -16z
m509 -59 c0 -5 -4 -10 -9 -10 -6 0 -13 5 -16 10 -3 6 1 10 9 10 9 0 16 -4 16
-10z m118 -138 c2 -7 -3 -12 -12 -12 -9 0 -16 7 -16 16 0 17 22 14 28 -4z
m-1758 -101 c0 -5 9 -11 20 -14 11 -3 20 -9 18 -14 -3 -11 31 -73 40 -72 19 3
23 -2 12 -16 -20 -24 -38 -17 -51 20 -9 23 -22 38 -36 41 -25 7 -30 19 -10 28
10 5 10 7 0 12 -15 7 -17 24 -3 24 6 0 10 -4 10 -9z m-54 -37 c-11 -10 -14
-24 -10 -37 5 -17 3 -19 -17 -14 -25 7 -69 -25 -69 -50 0 -7 -7 -13 -15 -13
-8 0 -15 2 -15 5 0 18 50 75 89 101 48 33 65 37 37 8z m1867 -106 c-3 -16 -10
-28 -15 -28 -6 0 -8 10 -4 23 3 12 6 29 6 37 0 9 3 10 9 5 5 -6 7 -22 4 -37z
m-1903 12 c0 -5 -4 -10 -10 -10 -5 0 -10 5 -10 10 0 6 5 10 10 10 6 0 10 -4
10 -10z m102 -32 c-6 -6 -16 -7 -22 -3 -9 6 -9 9 1 16 17 10 34 0 21 -13z
m1783 -67 c-9 -16 -25 -3 -18 15 4 10 9 12 15 6 6 -6 7 -15 3 -21z m-125 -155
c0 -3 -4 -8 -10 -11 -5 -3 -10 -1 -10 4 0 6 5 11 10 11 6 0 10 -2 10 -4z
m-1460 -156 c0 -5 -2 -10 -4 -10 -3 0 -8 5 -11 10 -3 6 -1 10 4 10 6 0 11 -4
11 -10z m785 -50 c4 -6 -10 -10 -35 -10 -25 0 -39 4 -35 10 3 6 19 10 35 10
16 0 32 -4 35 -10z m94 -90 c24 -11 49 -20 57 -20 7 0 16 -5 20 -12 5 -8 0 -9
-17 -4 -13 3 -62 14 -109 23 -47 9 -89 20 -94 25 -20 17 100 7 143 -12z
m-1319 -64 c0 -3 -4 -8 -10 -11 -5 -3 -10 -1 -10 4 0 6 5 11 10 11 6 0 10 -2
10 -4z m-42 -66 c-7 -10 -14 -18 -15 -16 -6 6 9 36 18 36 5 0 4 -9 -3 -20z
m1499 -5 c19 -8 46 -15 59 -15 26 0 57 -15 86 -42 22 -22 42 -23 58 -3 11 13
7 15 -24 15 -21 0 -35 4 -31 9 3 5 38 9 79 9 55 0 83 5 114 21 23 12 45 21 50
21 4 0 14 -16 21 -35 7 -19 19 -35 27 -35 8 0 19 -12 25 -27 6 -16 15 -36 20
-45 5 -10 9 -42 9 -71 0 -31 6 -61 15 -73 22 -29 19 -81 -5 -87 -13 -3 -20
-14 -20 -29 0 -30 -15 -52 -29 -44 -6 4 -11 3 -11 -2 0 -11 -92 -27 -123 -23
-11 1 -26 -7 -34 -18 -8 -12 -25 -21 -38 -21 -14 0 -29 -9 -35 -20 -7 -12 -21
-20 -38 -20 -44 0 -71 -11 -77 -30 -7 -22 -48 -32 -155 -36 -47 -2 -107 -7
-133 -12 -38 -8 -47 -7 -43 3 8 21 -48 69 -134 113 -46 24 -85 40 -88 38 -3
-3 -10 -1 -17 4 -15 12 -172 23 -179 12 -3 -4 1 -26 8 -48 11 -29 22 -42 45
-50 33 -11 111 -81 111 -99 0 -6 14 -19 31 -29 16 -10 37 -32 45 -49 9 -18 30
-39 47 -48 33 -15 67 -15 67 2 0 5 11 9 24 9 14 0 28 5 31 10 12 20 62 11 79
-15 9 -14 24 -25 33 -25 14 0 14 -2 -3 -15 -19 -14 -18 -15 4 -21 13 -4 21
-12 19 -18 -2 -6 -1 -20 3 -31 5 -12 1 -31 -8 -47 -11 -19 -13 -31 -6 -38 13
-13 5 -72 -9 -67 -6 2 -14 12 -17 23 -18 61 -95 151 -154 179 -40 19 -59 15
-80 -17 -13 -21 35 -80 84 -103 72 -33 85 -41 88 -57 3 -14 -5 -17 -39 -16
-23 0 -56 6 -73 13 -17 7 -46 10 -64 8 -25 -4 -38 0 -54 16 -11 12 -25 20 -31
18 -23 -7 -17 -33 13 -50 32 -19 41 -43 13 -34 -178 59 -244 72 -373 72 -82 0
-114 -4 -145 -19 -98 -46 -122 -56 -132 -56 -27 0 -122 -36 -160 -61 -24 -16
-43 -25 -43 -20 0 30 126 106 194 117 17 3 70 24 119 46 82 38 92 40 175 39
48 0 111 -5 140 -10 47 -7 54 -6 64 12 9 17 8 19 -10 14 -12 -3 -26 1 -33 9
-8 10 -22 13 -40 9 -27 -6 -55 15 -30 23 26 9 64 54 92 109 16 32 37 70 46 84
15 24 15 29 -2 72 -21 56 -64 85 -136 93 -28 3 -66 12 -85 20 -54 23 -171 23
-219 1 -22 -11 -58 -28 -81 -38 -49 -23 -64 -24 -112 -3 -20 8 -52 16 -70 18
-29 2 -39 -3 -65 -36 -17 -21 -32 -36 -34 -34 -2 2 6 25 17 52 14 34 47 74
103 129 46 44 119 119 163 168 45 48 88 87 97 87 9 0 19 5 23 11 12 20 53 -1
103 -54 69 -73 114 -86 299 -86 78 0 142 3 142 7 0 4 39 8 86 9 58 1 91 6 102
16 18 15 80 34 152 47 l45 7 -44 2 c-35 1 -42 4 -33 13 17 17 15 28 -5 28 -9
0 -13 3 -9 8 4 4 51 12 104 17 89 9 97 12 100 33 3 16 -2 22 -16 22 -11 0 -31
9 -46 21 -24 19 -34 20 -132 13 -101 -7 -106 -6 -102 12 2 14 15 21 43 25 75
12 156 9 192 -6z m-257 -35 c-19 -13 -30 -13 -30 0 0 6 10 10 23 10 18 0 19
-2 7 -10z m1810 -378 c39 -20 100 -71 100 -84 0 -5 -11 -1 -25 8 -56 36 -220
57 -279 34 -14 -5 -40 -25 -58 -44 -57 -60 -126 -47 -103 20 14 40 65 65 148
74 127 13 180 11 217 -8z m-2959 -213 c-5 -13 -30 -41 -55 -62 -40 -33 -46
-35 -46 -18 0 17 99 116 107 107 2 -2 -1 -14 -6 -27z m2611 -71 c21 -24 41
-54 44 -68 2 -14 9 -39 14 -56 15 -46 12 -54 -15 -54 -19 0 -31 -10 -46 -35
-12 -19 -27 -35 -35 -35 -22 0 -17 57 6 77 27 24 25 39 -10 80 -23 26 -30 43
-30 77 0 71 17 74 72 14z m307 -14 c50 -15 94 -49 88 -68 -2 -5 -10 -14 -19
-20 -13 -8 -25 -2 -54 27 -21 20 -60 44 -86 53 -26 8 -48 20 -48 26 0 12 41 5
119 -18z m-2374 -155 c5 -5 -13 -9 -42 -9 -48 0 -71 9 -57 23 8 7 87 -4 99
-14z m2456 -99 c-2 -68 -7 -89 -23 -107 -22 -23 -96 -41 -107 -26 -3 6 -16 15
-27 21 -19 10 -24 8 -37 -20 -11 -23 -13 -36 -6 -45 12 -14 4 -33 -15 -33 -8
0 -19 -7 -26 -15 -10 -12 -6 -17 25 -32 29 -14 38 -15 44 -4 5 8 17 11 29 7
26 -9 89 17 124 51 33 32 60 118 53 170 -5 41 13 104 32 110 7 3 13 -9 16 -29
l4 -33 13 33 c15 33 30 43 30 17 0 -35 -73 -212 -106 -257 -49 -66 -108 -104
-140 -89 -13 6 -24 7 -24 3 0 -4 -13 -13 -29 -19 -24 -8 -32 -8 -45 5 -14 14
-19 14 -54 -2 -48 -22 -127 -14 -142 15 -13 23 -13 66 0 74 5 3 7 12 3 20 -4
11 2 15 21 15 28 0 33 9 14 28 -9 9 -6 12 15 12 34 0 106 36 114 56 4 10 -5
24 -22 38 -27 21 -27 24 -10 33 13 8 29 6 61 -8 41 -19 132 -28 152 -15 5 3
12 20 16 38 3 17 11 50 17 72 10 36 12 38 22 21 7 -12 10 -54 8 -105z m-2351
90 c12 -8 12 -10 -4 -16 -11 -4 -24 0 -34 10 -15 15 -15 16 3 16 11 0 27 -4
35 -10z m-782 -27 c3 -17 -1 -20 -22 -16 -22 5 -24 8 -15 25 13 24 33 19 37
-9z m805 -120 c-7 -2 -19 -2 -25 0 -7 3 -2 5 12 5 14 0 19 -2 13 -5z m232
-183 c58 -9 82 -8 142 7 75 17 103 12 69 -13 -27 -19 -119 -53 -186 -69 -30
-7 -90 -22 -132 -34 -43 -12 -111 -29 -150 -40 -102 -26 -211 -62 -222 -72 -6
-5 -15 -9 -20 -9 -18 1 38 40 56 40 10 0 22 9 28 19 14 27 13 31 -10 31 -11 0
-20 -4 -20 -10 0 -5 -13 -10 -30 -10 -18 0 -29 -5 -27 -12 1 -6 -30 -21 -74
-34 -42 -12 -86 -27 -99 -34 -18 -10 -24 -9 -31 1 -7 11 -12 9 -24 -8 -9 -13
-22 -23 -29 -23 -8 0 -17 -7 -20 -16 -4 -9 -9 -14 -12 -11 -8 8 21 59 48 83
43 40 350 173 508 220 47 15 115 13 235 -6z m281 -76 c-24 -17 -19 -25 10 -14
34 13 42 7 40 -32 -2 -29 -5 -33 -31 -34 -21 0 -29 -5 -27 -16 3 -17 -14 -34
-41 -39 -10 -2 -18 -8 -17 -14 1 -14 -91 -24 -117 -12 -12 5 -24 15 -27 22 -2
7 31 47 75 89 61 59 84 76 99 71 12 -4 20 -2 20 6 0 8 4 8 16 -2 14 -12 14
-14 0 -25z m-856 -194 c-20 -13 -53 -13 -45 0 3 6 18 10 33 10 21 0 24 -2 12
-10z m365 -250 c3 -5 36 -10 73 -10 l67 0 1 -50 c0 -45 -2 -50 -21 -50 -11 0
-25 -4 -31 -10 -5 -5 -33 -10 -62 -11 -41 -2 -57 2 -75 19 -12 12 -39 22 -61
24 -55 4 -60 28 -7 28 41 0 56 15 24 23 -14 4 -13 5 4 6 13 0 28 10 35 21 14
21 43 27 53 10z m1245 -94 c0 -3 -4 -8 -10 -11 -5 -3 -10 -1 -10 4 0 6 5 11
10 11 6 0 10 -2 10 -4z m590 -723 c-1 -14 -50 -44 -60 -38 -16 10 -12 19 13
31 27 14 47 17 47 7z m-2 -323 c-7 -11 -18 -20 -25 -20 -18 0 -16 10 5 26 25
20 34 17 20 -6z m-1990 -112 c-6 -18 -28 -21 -28 -4 0 9 7 16 16 16 9 0 14 -5
12 -12z m1812 2 c0 -5 -12 -10 -26 -10 -14 0 -23 4 -19 10 3 6 15 10 26 10 10
0 19 -4 19 -10z m-53 -27 c2 -6 -8 -14 -22 -17 -15 -4 -30 -17 -35 -31 -5 -14
-14 -25 -19 -25 -12 0 18 60 39 77 17 14 32 12 37 -4z m318 -3 c-3 -5 -11 -10
-16 -10 -6 0 -7 5 -4 10 3 6 11 10 16 10 6 0 7 -4 4 -10z m-99 -42 c-10 -5
-26 -8 -36 -5 -23 6 -58 -17 -42 -27 9 -5 8 -12 -1 -26 -14 -24 -27 -26 -27
-5 0 17 -11 20 -26 5 -5 -5 -27 -10 -49 -12 -25 -1 -45 -9 -53 -20 -7 -10 -18
-18 -24 -18 -7 0 -22 -10 -35 -22 -15 -14 -34 -21 -53 -20 -20 2 -32 -4 -40
-18 -6 -11 -15 -20 -21 -20 -16 0 27 73 63 106 18 17 44 34 58 37 33 7 116 32
161 49 42 15 154 12 125 -4z m-65 -131 c-15 -30 -17 -31 -34 -17 -17 14 -16
15 8 23 14 5 25 13 25 18 0 5 4 9 9 9 5 0 1 -15 -8 -33z m99 13 c0 -5 -7 -10
-15 -10 -8 0 -15 5 -15 10 0 6 7 10 15 10 8 0 15 -4 15 -10z m40 -20 c0 -5 -2
-10 -4 -10 -3 0 -8 5 -11 10 -3 6 -1 10 4 10 6 0 11 -4 11 -10z m-230 -14 c0
-23 -17 -36 -46 -36 -37 0 -37 0 -28 24 4 10 18 16 40 16 19 0 34 -2 34 -4z
m-95 -16 c3 -5 -3 -10 -14 -10 -12 0 -21 5 -21 10 0 6 6 10 14 10 8 0 18 -4
21 -10z m209 -5 c-5 -11 1 -15 25 -15 17 0 31 -2 31 -4 0 -18 -45 -76 -59 -76
-9 0 -27 -7 -40 -16 -21 -15 -23 -15 -36 4 -8 10 -28 22 -45 25 -16 4 -30 11
-30 17 0 14 93 13 108 -2 8 -8 15 -8 27 2 22 19 19 43 -5 37 -11 -3 -23 -1
-26 4 -3 5 -14 9 -25 9 -10 0 -19 5 -19 11 0 7 11 9 30 6 16 -4 32 -2 35 3 10
16 35 12 29 -5z m126 -45 c12 -8 11 -10 -7 -10 -13 0 -23 5 -23 10 0 13 11 13
30 0z m-40 -64 c0 -3 -4 -8 -10 -11 -5 -3 -10 -1 -10 4 0 6 5 11 10 11 6 0 10
-2 10 -4z m-55 -16 c4 -6 -6 -10 -22 -9 -25 0 -26 1 -8 9 11 5 21 9 22 9 1 1
5 -3 8 -9z m155 -10 c0 -13 -11 -13 -30 0 -12 8 -11 10 8 10 12 0 22 -4 22
-10z m-67 -31 c-6 -6 -17 -8 -24 -3 -9 5 -8 9 7 14 23 9 31 3 17 -11z m77 -29
c0 -5 -4 -10 -10 -10 -5 0 -10 5 -10 10 0 6 5 10 10 10 6 0 10 -4 10 -10z
m-167 -7 c-7 -2 -21 -2 -30 0 -10 3 -4 5 12 5 17 0 24 -2 18 -5z m122 -23 c-3
-5 -13 -10 -21 -10 -8 0 -12 5 -9 10 3 6 13 10 21 10 8 0 12 -4 9 -10z m-180
-110 c3 -5 -1 -10 -10 -10 -9 0 -13 5 -10 10 3 6 8 10 10 10 2 0 7 -4 10 -10z
m-215 -426 c0 -11 -23 -49 -39 -64 -36 -34 -219 -238 -251 -280 -19 -25 -37
-47 -40 -50 -3 -3 -13 -17 -23 -32 -9 -15 -59 -59 -110 -97 -106 -80 -195
-167 -267 -264 -57 -75 -61 -76 -147 -34 -43 20 -56 37 -30 37 22 0 50 37 44
59 -3 11 3 28 14 40 22 24 25 39 5 22 -10 -9 -16 -9 -21 -1 -7 11 30 50 46 50
14 0 79 72 79 88 0 9 3 12 7 8 9 -8 72 159 72 192 1 22 -13 30 -23 13 -3 -4
-34 -14 -68 -21 -35 -6 -90 -20 -123 -30 -33 -10 -87 -21 -120 -24 l-60 -5 55
15 c71 19 249 73 275 83 11 5 45 18 75 31 30 12 100 39 155 60 107 41 283 116
405 173 77 37 90 41 90 31z m-1077 -391 c-7 -2 -19 -2 -25 0 -7 3 -2 5 12 5
14 0 19 -2 13 -5z m70 -1179 c4 -4 -35 -47 -85 -96 -70 -67 -102 -91 -133 -98
-103 -25 -246 -75 -305 -108 -72 -39 -188 -122 -265 -189 -27 -24 -79 -68
-115 -98 -46 -39 -76 -75 -105 -127 -32 -58 -54 -83 -115 -129 -78 -60 -108
-96 -139 -164 -30 -65 -90 -230 -106 -290 -19 -73 -38 -103 -93 -145 -105 -80
-162 -157 -162 -219 0 -14 -21 -60 -45 -101 -25 -41 -44 -82 -42 -90 6 -31 78
-13 217 53 74 36 137 61 138 56 2 -5 -9 -31 -24 -57 -16 -26 -36 -62 -46 -80
-9 -19 -38 -67 -65 -108 -42 -65 -52 -74 -78 -74 -37 0 -55 -16 -55 -49 0 -13
-18 -48 -40 -77 -22 -29 -40 -60 -40 -69 0 -9 13 -24 30 -33 27 -15 30 -22 30
-67 -1 -127 -18 -229 -48 -285 -37 -68 -50 -120 -29 -120 7 0 22 9 32 20 10
11 28 20 39 20 28 0 66 27 66 47 0 17 76 93 85 85 3 -3 5 -16 5 -28 0 -32 14
-37 48 -17 30 17 31 20 35 103 4 88 25 160 57 195 28 32 77 125 96 185 28 92
36 84 32 -30 -4 -101 -13 -140 -78 -345 -14 -41 1 -52 42 -28 28 16 35 28 47
82 12 57 16 64 47 77 65 27 84 14 84 -59 0 -34 19 -42 65 -27 28 9 35 16 29
29 -11 26 -32 130 -42 216 -6 44 -18 118 -27 165 -9 47 -19 95 -21 108 -4 20
-8 22 -44 16 -22 -4 -40 -4 -40 -1 0 3 16 29 35 59 20 29 60 103 91 163 30 61
66 119 78 131 22 19 169 62 391 114 50 12 100 25 113 30 12 5 86 22 165 36
120 23 168 27 315 26 94 0 172 3 172 7 0 5 -35 24 -78 43 -43 19 -100 54 -127
77 -28 23 -69 57 -92 76 -44 38 -123 167 -123 204 0 24 -38 44 -55 30 -6 -4
-19 -37 -29 -73 -11 -37 -25 -66 -31 -66 -22 0 -34 104 -16 138 4 9 11 32 14
50 6 27 4 32 -13 32 -11 0 -20 -3 -20 -7 0 -15 -89 -107 -96 -100 -4 4 -1 15
7 24 8 10 23 34 33 53 103 191 192 308 264 344 27 13 54 32 61 40 8 9 21 16
30 16 9 0 26 7 38 15 40 28 173 41 173 16 0 -3 -17 -17 -38 -30 -53 -35 -92
-73 -92 -89 0 -7 -10 -22 -22 -31 -36 -30 -18 -51 45 -51 87 0 183 -74 163
-126 -6 -15 -9 -15 -30 5 -33 31 -142 64 -167 51 -36 -20 -19 -40 52 -65 24
-9 60 -28 79 -43 19 -15 46 -35 60 -43 25 -16 57 -85 45 -97 -3 -3 -26 4 -50
17 -24 13 -48 20 -53 17 -20 -12 -69 7 -87 34 -22 33 -85 68 -85 47 0 -7 4
-17 9 -22 4 -6 16 -31 25 -56 16 -42 16 -49 2 -82 -13 -32 -46 -52 -46 -28 0
4 -11 20 -25 35 -14 15 -25 35 -25 45 0 11 -7 21 -15 25 -8 3 -15 15 -15 26 0
24 -26 38 -42 22 -18 -18 0 -76 48 -150 35 -55 63 -84 132 -135 84 -61 239
-147 268 -147 8 0 52 30 98 66 67 52 91 78 117 127 18 34 43 79 56 99 25 41
30 72 11 66 -7 -3 -35 -39 -63 -81 -27 -42 -55 -77 -62 -77 -24 0 -26 64 -3
103 29 49 7 50 -40 2 -19 -19 -43 -35 -53 -35 -11 0 -33 -12 -49 -26 -42 -35
-56 -17 -24 30 33 48 88 93 154 123 52 24 64 39 39 49 -15 5 -88 -25 -124 -52
-22 -15 -23 -15 -23 2 0 11 6 26 13 35 21 27 103 69 136 69 34 0 52 23 32 43
-6 6 -11 19 -11 28 0 10 -15 29 -32 43 -40 31 -30 45 33 48 29 1 59 -5 85 -19
49 -25 64 -19 68 32 3 30 13 47 45 78 70 65 107 38 70 -50 -7 -18 -11 -35 -8
-37 3 -3 24 4 46 15 50 24 138 24 138 -1 0 -11 -9 -14 -31 -12 -20 2 -39 -4
-55 -18 l-24 -21 50 4 c50 4 158 -17 183 -36 8 -6 9 -14 2 -21 -6 -8 -36 -11
-94 -8 -65 3 -90 1 -106 -11 -22 -15 -21 -16 23 -35 49 -22 62 -35 53 -59 -4
-11 -10 -12 -19 -5 -6 5 -24 10 -38 10 -27 0 -27 -1 -12 -36 8 -19 12 -46 8
-59 -5 -21 -10 -24 -32 -18 -15 3 -43 20 -64 36 -58 46 -73 38 -58 -30 10 -46
-6 -114 -25 -108 -5 2 -16 22 -25 45 -19 53 -41 54 -66 2 -78 -156 -108 -200
-176 -256 -67 -56 -81 -74 -58 -74 18 0 208 57 294 89 307 111 555 178 745
201 52 6 163 22 245 35 83 13 213 34 290 45 205 32 264 58 281 126 12 48 -65
183 -156 275 -66 66 -92 84 -210 143 -170 86 -201 104 -329 189 -57 38 -127
80 -155 93 -74 34 -76 34 -451 -27 -66 -10 -160 -19 -210 -19 -93 0 -301 22
-390 40 -45 9 -168 29 -187 30 -5 0 -8 5 -8 11 0 6 13 9 30 7 17 -1 34 2 38 8
4 6 15 13 25 17 9 3 17 13 17 22 0 8 5 15 12 15 9 0 9 3 0 12 -6 6 -34 11 -62
11 -28 0 -47 3 -44 9 8 13 253 9 369 -7 186 -26 330 -38 390 -32 88 8 313 43
367 57 79 20 173 9 246 -28 35 -18 75 -41 90 -51 176 -122 260 -170 473 -270
72 -33 178 -124 232 -199 48 -66 151 -263 182 -350 48 -132 107 -404 91 -419
-3 -4 -31 -10 -61 -14 -99 -13 -176 -68 -216 -154 -63 -137 48 -286 226 -304
l60 -6 -3 -95 c-6 -242 -156 -688 -320 -952 -37 -59 -71 -108 -76 -108 -5 0
-6 14 -2 30 3 17 1 30 -4 30 -6 0 -10 -4 -10 -10 0 -5 -4 -10 -10 -10 -5 0 -7
7 -4 15 4 11 0 15 -16 15 -15 0 -20 5 -17 15 5 11 0 13 -26 8 -18 -4 -37 -13
-44 -22 -11 -14 -12 -14 -13 -1 0 8 48 111 106 228 89 175 108 222 112 268 6
69 -9 99 -61 126 -34 17 -58 20 -170 19 -72 -1 -140 -4 -151 -6 -12 -3 -92 -9
-180 -15 -87 -6 -236 -22 -330 -35 -333 -47 -403 -54 -591 -60 -104 -3 -239
-13 -300 -20 -314 -40 -712 -112 -805 -145 -19 -7 -93 -34 -165 -60 -71 -27
-159 -58 -195 -70 -36 -12 -94 -35 -129 -51 -68 -32 -234 -89 -257 -89 -19 0
-211 -73 -292 -111 -235 -111 -293 -141 -298 -154 -8 -20 -34 -19 -34 1 0 8
-32 48 -71 87 -39 40 -78 87 -85 104 -9 22 -21 33 -34 33 -19 0 -17 7 20 74
65 119 90 191 90 263 0 38 -6 76 -15 93 -28 55 -115 78 -163 44 -20 -14 -23
-14 -29 2 -8 21 11 212 29 279 17 66 77 181 150 283 66 93 98 150 98 172 0 70
72 165 168 224 75 46 104 79 132 151 13 33 27 65 31 70 4 6 33 68 65 139 67
149 81 168 182 243 70 51 77 60 117 146 24 51 65 121 92 156 26 35 68 92 93
126 38 52 124 131 224 206 89 67 325 155 486 182 42 7 116 7 123 1z m94 -140
c-3 -3 -12 -4 -19 -1 -8 3 -5 6 6 6 11 1 17 -2 13 -5z m-753 -625 c-20 -21
-31 -26 -38 -18 -8 7 -3 18 17 35 39 33 56 19 21 -17z m2281 -49 c4 -6 2 -17
-4 -23 -5 -7 -8 -23 -5 -34 9 -33 -36 -73 -80 -73 -19 0 -38 5 -41 11 -5 7
-16 2 -32 -13 -23 -21 -25 -22 -37 -6 -12 16 -15 16 -47 -8 -25 -19 -42 -24
-63 -20 -16 4 -34 2 -40 -3 -20 -17 -100 -41 -109 -32 -4 4 8 24 28 45 41 44
42 46 15 39 -28 -7 -25 12 6 36 16 12 42 21 63 21 20 0 45 7 55 15 22 17 64
19 85 6 9 -6 11 -19 6 -42 l-6 -34 15 27 c8 15 12 36 9 47 -4 15 2 20 26 26
17 3 34 4 39 1 5 -3 18 1 28 9 22 17 80 20 89 5z m-2967 -221 c-6 -16 -12 -28
-14 -26 -5 5 13 57 20 57 3 0 0 -14 -6 -31z m247 -339 c3 -5 -6 -17 -20 -26
-14 -9 -25 -24 -25 -33 0 -23 -50 -67 -77 -69 -50 -2 -16 61 58 108 49 32 55
34 64 20z m3658 -122 c10 -5 25 -25 33 -45 41 -98 -85 -192 -176 -131 -48 33
-65 69 -50 112 13 40 37 64 76 76 32 10 88 4 117 -12z m-3677 -717 c11 -58 10
-63 -10 -76 -33 -24 -49 -19 -42 13 3 15 9 51 12 80 9 69 26 62 40 -17z m-416
-135 c0 -15 -24 -28 -34 -19 -13 14 -5 33 14 33 11 0 20 -6 20 -14z m-334
-140 c29 -22 25 -103 -8 -154 -32 -48 -62 -59 -83 -29 -22 32 -28 79 -15 126
9 33 18 46 43 56 40 18 39 18 63 1z m1889 -57 c-6 -61 -1 -66 76 -73 272 -27
450 -161 553 -418 14 -37 26 -76 26 -87 0 -11 9 -25 19 -31 16 -8 17 -14 9
-32 -10 -21 -19 -23 -89 -25 -43 -2 -90 2 -104 7 -20 8 -38 5 -83 -14 -31 -13
-70 -26 -87 -30 -16 -4 -38 -9 -47 -12 -26 -8 -11 24 15 32 l21 7 -20 16 c-11
9 -19 22 -16 29 3 10 -11 17 -22 10 -8 -5 -46 35 -46 49 0 16 -17 17 -23 1 -3
-9 -8 -10 -15 -3 -7 7 -7 29 0 70 11 70 4 133 -22 192 -25 57 -121 194 -132
187 -7 -5 -4 -75 7 -146 3 -16 0 -28 -5 -28 -5 0 -10 10 -12 22 -4 29 -28 36
-28 8 0 -15 -5 -20 -15 -16 -8 3 -21 -4 -29 -16 -14 -19 -15 -17 -10 28 6 62
22 114 41 136 34 39 -10 70 -63 44 -44 -20 -68 -20 -85 1 -12 13 -12 17 -1 21
8 2 29 20 48 38 18 19 47 37 64 40 16 4 35 13 41 20 23 28 39 16 34 -27z m37
-384 c3 -14 1 -25 -3 -25 -5 0 -9 11 -9 25 0 14 2 25 4 25 2 0 6 -11 8 -25z
m-135 -75 c-7 -32 1 -37 33 -20 13 7 21 7 25 0 10 -16 23 -12 27 8 7 29 38
-42 38 -85 l0 -38 -59 -2 c-33 -2 -63 2 -66 7 -9 14 -48 13 -63 -2 -23 -23
-13 19 21 92 33 73 54 91 44 40z m167 -90 c5 -36 4 -52 -3 -45 -5 6 -12 39
-16 75 -6 77 9 53 19 -30z m890 -61 c-11 -18 -71 -39 -112 -39 -45 0 -102 18
-102 31 0 8 17 7 70 -7 8 -2 40 3 70 10 71 18 83 18 74 5z m-984 -20 c0 -12
-37 -12 -44 0 -7 11 14 20 32 13 6 -2 12 -8 12 -13z m672 -91 c3 -31 5 -33 47
-36 24 -2 61 4 82 12 44 18 59 20 59 8 0 -20 -77 -44 -137 -43 l-63 0 -15 -37
c-9 -20 -25 -47 -37 -59 l-21 -22 25 -6 c21 -5 60 4 121 30 10 4 17 3 17 -3 0
-18 -90 -52 -137 -52 -24 0 -61 9 -83 20 l-39 20 -29 -25 c-57 -48 -139 -60
-193 -28 -27 16 -30 16 -56 -3 -76 -56 -131 -67 -202 -38 -37 15 -40 14 -75
-10 -49 -33 -116 -43 -174 -25 -48 15 -68 39 -33 39 17 0 21 6 21 35 l0 34
-62 -5 c-65 -6 -135 5 -130 22 1 5 39 9 85 10 52 0 100 7 131 18 52 19 92 22
143 11 20 -5 48 -1 75 8 24 9 60 18 81 22 20 3 43 14 49 24 10 17 13 17 26 4
17 -16 31 -15 162 11 94 19 297 74 320 87 28 15 39 9 42 -23z m-583 -59 c-8
-5 -20 -9 -26 -9 -18 0 -16 19 2 26 8 4 15 14 16 23 0 11 4 9 12 -7 8 -19 8
-25 -4 -33z m-352 5 c-3 -3 -12 -4 -19 -1 -8 3 -5 6 6 6 11 1 17 -2 13 -5z
m-62 -203 c-17 -15 -169 -61 -203 -61 -39 0 -42 17 -4 26 15 3 54 14 87 24 63
20 136 26 120 11z m945 -30 c0 -5 -19 -19 -43 -30 -46 -22 -112 -27 -137 -11
-11 7 1 10 40 10 32 0 71 8 95 19 22 11 41 20 43 20 1 1 2 -3 2 -8z m-280 -51
c-50 -39 -128 -47 -183 -18 -29 15 -10 26 33 18 37 -7 126 3 138 15 3 3 12 5
21 5 12 0 9 -6 -9 -20z m-520 1 c0 -10 -201 -24 -224 -15 -9 3 -13 10 -10 15
7 11 234 12 234 0z m269 -23 c-27 -23 -144 -25 -194 -4 -19 8 -35 16 -35 18 0
2 56 3 125 3 122 0 125 -1 104 -17z m-226 -34 c99 -8 120 -19 52 -29 -48 -8
-118 -1 -173 16 -38 12 -32 34 7 25 14 -3 66 -9 114 -12z m892 -13 c-43 -43
-154 -51 -201 -16 -17 12 -11 13 51 9 49 -4 82 -1 110 9 54 21 63 20 40 -2z
m-1095 -26 c-41 -43 -105 -75 -148 -75 -42 0 -41 16 1 25 44 10 98 38 121 64
11 12 28 21 40 21 17 0 16 -4 -14 -35z m443 -1 c33 -8 75 -11 98 -8 25 4 39 3
39 -4 0 -11 -12 -16 -67 -27 -46 -9 -180 36 -167 56 3 6 13 7 23 4 9 -4 42
-13 74 -21z m397 7 c0 -17 -86 -51 -127 -51 -45 0 -103 17 -103 31 0 5 29 6
68 3 49 -5 76 -2 102 9 41 18 60 21 60 8z m-305 -76 c22 -8 75 -14 118 -15 80
0 103 -14 42 -26 -77 -14 -192 11 -203 44 -5 15 -6 15 43 -3z m-1290 -157 c14
-6 25 -15 25 -20 0 -12 -41 0 -60 18 -18 17 -1 19 35 2z"/>
<path d="M13117 10450 c-3 -11 -1 -23 4 -26 5 -3 9 6 9 20 0 31 -6 34 -13 6z"/>
<path d="M14610 10439 c0 -20 21 -49 35 -49 21 0 18 23 -5 43 -23 20 -30 21
-30 6z"/>
<path d="M14677 10385 c-7 -41 0 -68 17 -62 14 5 14 89 0 94 -6 2 -14 -12 -17
-32z"/>
<path d="M13470 10380 c8 -5 20 -10 25 -10 6 0 3 5 -5 10 -8 5 -19 10 -25 10
-5 0 -3 -5 5 -10z"/>
<path d="M13475 10350 c-19 -7 -19 -8 -2 -15 19 -8 31 -2 26 13 -2 5 -13 6
-24 2z"/>
<path d="M13433 10313 c9 -2 23 -2 30 0 6 3 -1 5 -18 5 -16 0 -22 -2 -12 -5z"/>
<path d="M13365 10280 c3 -5 17 -10 31 -10 14 0 22 4 19 10 -3 6 -17 10 -31
10 -14 0 -22 -4 -19 -10z"/>
<path d="M13350 10240 c-8 -5 -11 -12 -8 -16 10 -9 38 3 38 16 0 12 -10 13
-30 0z"/>
<path d="M13116 10064 c-8 -22 1 -31 16 -16 9 9 9 15 1 23 -7 7 -12 5 -17 -7z"/>
<path d="M13195 10060 c3 -5 8 -10 11 -10 2 0 4 5 4 10 0 6 -5 10 -11 10 -5 0
-7 -4 -4 -10z"/>
<path d="M13175 10020 c3 -5 10 -10 16 -10 5 0 9 5 9 10 0 6 -7 10 -16 10 -8
0 -12 -4 -9 -10z"/>
<path d="M13630 8641 c0 -6 5 -13 10 -16 6 -3 10 1 10 9 0 9 -4 16 -10 16 -5
0 -10 -4 -10 -9z"/>
<path d="M13307 8263 c-12 -12 -7 -22 8 -17 8 4 15 10 15 15 0 11 -14 12 -23
2z"/>
<path d="M15160 6510 c0 -5 7 -10 15 -10 8 0 15 5 15 10 0 6 -7 10 -15 10 -8
0 -15 -4 -15 -10z"/>
<path d="M15908 2711 c-27 -4 -52 -11 -57 -16 -12 -14 -27 -80 -50 -221 -11
-65 -32 -173 -45 -238 -14 -66 -22 -124 -19 -129 5 -9 80 -4 90 6 2 3 8 30 12
61 4 31 12 61 17 66 5 5 36 11 69 12 l60 3 15 -62 c16 -67 23 -72 80 -63 23 4
34 10 32 20 -2 7 -19 77 -37 154 -19 78 -48 202 -63 276 -31 147 -27 142 -104
131z m36 -261 c10 -43 15 -84 11 -90 -7 -12 -71 -14 -79 -2 -4 7 18 129 29
160 10 28 22 8 39 -68z"/>
<path d="M15520 2651 c-25 -7 -25 -9 -32 -136 -10 -178 -10 -165 -6 -305 l3
-125 39 -3 c21 -2 43 1 48 6 10 10 12 530 2 555 -7 18 -14 19 -54 8z"/>
<path d="M15273 2623 c-25 -5 -24 -2 -28 -212 -1 -41 -6 -76 -12 -78 -5 -2
-35 56 -65 129 -54 129 -56 133 -84 131 -76 -6 -72 2 -76 -150 -2 -76 -1 -205
0 -287 l4 -148 41 6 c23 4 43 9 46 11 2 3 3 70 2 150 -2 114 1 145 11 145 7 0
37 -60 69 -138 59 -146 62 -149 126 -137 l34 6 -1 137 c0 75 -1 146 0 157 0
11 -1 79 -3 150 -3 142 -2 141 -64 128z"/>
<path d="M14670 2498 c-58 -22 -106 -41 -108 -42 -2 -3 -20 -185 -27 -281 -2
-33 -8 -88 -13 -122 -5 -35 -6 -65 -4 -68 8 -8 66 -6 78 3 7 4 15 54 19 115 7
102 8 107 30 107 19 0 28 -15 65 -102 23 -57 47 -106 53 -110 21 -13 77 -9 83
6 3 8 -13 56 -35 105 -23 50 -41 99 -41 109 0 10 16 33 35 52 l35 34 0 103 0
102 -30 16 c-16 8 -30 15 -32 14 -2 0 -50 -18 -108 -41z m85 -68 c4 -6 4 -34
0 -61 -8 -54 -15 -61 -89 -74 l-36 -7 0 53 c0 30 4 59 8 65 17 25 105 43 117
24z"/>
<path d="M14300 2390 c-14 -4 -44 -8 -68 -9 -41 -1 -114 -30 -127 -51 -7 -12
-24 -155 -31 -260 -2 -41 -5 -88 -7 -104 -2 -24 4 -33 30 -48 32 -19 33 -19
122 2 123 30 149 57 162 166 30 270 31 284 19 299 -13 16 -59 18 -100 5z m24
-69 c3 -5 1 -31 -5 -57 -5 -27 -14 -91 -19 -142 -5 -51 -11 -96 -14 -100 -8
-13 -114 -34 -127 -27 -7 5 -9 23 -5 49 4 22 10 87 15 144 10 108 18 129 54
134 53 8 96 8 101 -1z"/>
<path d="M13833 2345 c-62 -12 -115 -23 -117 -26 -2 -2 -12 -98 -21 -214 -9
-115 -19 -231 -22 -257 -5 -52 3 -59 50 -37 22 10 26 21 38 115 l13 104 35 10
c20 5 52 13 71 17 33 8 35 11 35 48 l0 40 -40 -4 c-93 -8 -90 -9 -93 30 -2 19
1 47 7 61 10 25 21 30 138 54 23 4 43 59 27 74 -5 4 -60 -2 -121 -15z"/>
<path d="M13508 2268 c-14 -11 -18 -38 -21 -138 -5 -144 -11 -237 -22 -331 -5
-44 -4 -68 3 -73 13 -8 84 33 76 45 -3 5 0 53 6 106 6 54 14 167 16 251 l5
152 -23 0 c-13 0 -32 -6 -40 -12z"/>
<path d="M13172 2175 l-33 -14 2 -134 c1 -74 -1 -139 -5 -145 -3 -5 -2 -21 3
-33 4 -13 5 -36 0 -51 -10 -37 -15 -175 -6 -184 3 -4 33 5 64 19 32 14 77 30
101 37 41 11 42 11 42 55 0 37 -3 45 -18 45 -10 0 -22 -4 -27 -9 -6 -5 -28
-13 -49 -17 l-39 -7 8 69 c9 79 7 366 -3 376 -4 4 -22 0 -40 -7z"/>
<path d="M15347 3142 c-21 -23 -22 -52 -2 -52 12 0 45 47 45 65 0 12 -28 4
-43 -13z"/>
<path d="M15535 3141 c-3 -5 -1 -12 5 -16 12 -7 30 2 30 16 0 12 -27 12 -35 0z"/>
<path d="M15257 3093 c-12 -11 -8 -23 8 -23 8 0 15 7 15 15 0 16 -12 20 -23 8z"/>
<path d="M14214 1148 c-10 -15 23 -37 46 -31 27 7 25 29 -2 37 -32 8 -36 8
-44 -6z"/>
<path d="M14250 660 c-12 -8 -11 -10 8 -10 12 0 22 5 22 10 0 13 -11 13 -30 0z"/>
<path d="M13905 16 l-70 -13 170 -1 c133 -1 166 1 150 10 -29 17 -168 19 -250
4z"/>
</g>
</svg>
