<?xml version="1.0" standalone="no"?>
<!DOCTYPE svg PUBLIC "-//W3C//DTD SVG 20010904//EN"
 "http://www.w3.org/TR/2001/REC-SVG-20010904/DTD/svg10.dtd">
<svg version="1.0" xmlns="http://www.w3.org/2000/svg"
 width="1511.000000pt" height="2015.000000pt" viewBox="0 0 1511.000000 2015.000000"
 preserveAspectRatio="xMidYMid meet">

<g transform="translate(0.000000,2015.000000) scale(0.100000,-0.100000)"
fill="#000000" stroke="none">
<path d="M5659 17950 c-9 -5 -41 -11 -72 -14 -30 -2 -61 -7 -68 -11 -7 -5 -42
-8 -78 -7 -44 0 -80 -5 -106 -17 -76 -34 -146 -53 -172 -48 -27 5 -81 -13
-105 -35 -24 -22 -57 -38 -79 -38 -11 0 -41 -18 -65 -39 -25 -22 -64 -48 -87
-60 -55 -27 -167 -135 -192 -186 -11 -22 -39 -59 -62 -82 -24 -22 -43 -46 -43
-52 0 -6 -5 -11 -10 -11 -39 0 -153 -181 -197 -310 -20 -58 -42 -113 -50 -122
-19 -22 -63 -115 -63 -134 0 -24 37 -16 44 9 3 13 35 62 71 110 79 105 247
238 420 333 17 9 44 29 60 44 17 15 53 35 81 44 28 9 62 28 74 41 13 14 29 25
35 25 7 0 24 9 38 20 14 11 40 20 60 20 20 0 39 5 42 10 3 6 17 10 29 10 13 0
29 7 36 15 18 21 71 45 95 42 11 -1 19 3 18 10 -1 6 10 14 25 17 81 15 114 17
126 7 10 -8 17 -7 26 4 11 13 39 15 199 10 102 -4 218 -9 256 -11 39 -2 103
-7 144 -9 40 -2 80 -10 87 -16 12 -9 17 -8 28 6 9 13 15 15 20 6 4 -6 12 -9
17 -5 6 3 30 -1 55 -11 24 -9 50 -15 57 -12 6 2 23 0 37 -5 14 -6 75 -9 136
-9 95 1 114 -1 135 -18 14 -10 36 -19 49 -20 14 0 40 -1 59 -1 23 -1 54 -15
91 -41 31 -21 61 -39 68 -39 7 0 12 -4 12 -10 0 -5 12 -20 27 -34 21 -20 24
-28 15 -39 -10 -11 -9 -17 3 -27 9 -7 14 -18 12 -24 -3 -6 14 -20 37 -31 22
-10 42 -20 44 -21 2 -1 -2 -11 -9 -23 -12 -17 -10 -24 9 -50 12 -17 22 -33 22
-37 0 -4 7 -12 17 -19 15 -11 14 -14 -5 -33 -28 -28 -28 -36 5 -67 34 -30 43
-31 43 -4 0 11 5 17 10 14 6 -4 10 -12 9 -18 -3 -29 3 -37 30 -37 24 0 28 -3
24 -20 -5 -17 0 -20 31 -20 l36 0 -20 -20 c-11 -11 -20 -24 -20 -30 0 -25 -53
-8 -92 30 -23 21 -45 37 -50 34 -15 -10 -8 -36 12 -41 11 -3 20 -12 20 -19 0
-8 11 -19 24 -23 13 -5 26 -17 29 -25 4 -9 16 -16 27 -16 23 0 25 -8 7 -31
-15 -20 -37 -13 -37 12 0 13 -7 19 -24 19 -16 0 -26 7 -29 21 -9 32 -51 22
-55 -13 -2 -17 -9 -28 -18 -28 -25 0 -11 -22 27 -43 45 -25 50 -35 42 -80 -6
-40 -54 -100 -61 -78 -2 6 -8 9 -13 5 -17 -10 -9 23 11 49 24 30 25 43 4 51
-23 9 -36 -3 -31 -29 3 -17 -2 -25 -17 -29 -19 -6 -20 -7 -3 -17 18 -11 24
-49 7 -49 -16 0 -23 -46 -10 -69 6 -13 21 -21 35 -21 37 0 30 -13 -17 -35 -26
-12 -45 -28 -47 -40 -2 -11 -10 -25 -19 -31 -9 -6 -12 -16 -7 -24 9 -15 -11
-30 -43 -30 -14 0 -21 -4 -16 -11 3 -6 1 -15 -6 -19 -17 -11 31 -60 59 -60 14
0 23 -9 27 -25 3 -13 14 -27 24 -30 10 -3 20 -15 23 -25 7 -26 32 -25 57 0 21
21 60 27 60 10 0 -5 -7 -10 -15 -10 -11 0 -15 -11 -15 -40 0 -29 4 -40 15 -40
8 0 15 9 15 19 0 11 7 26 15 35 8 8 15 22 15 30 0 12 10 16 40 16 33 0 40 -3
40 -20 0 -11 5 -20 11 -20 7 0 17 -7 24 -17 17 -24 37 -6 33 30 -2 23 1 32 12
32 11 0 15 -11 15 -39 0 -34 4 -41 25 -46 43 -10 31 -35 -18 -35 -50 0 -65
-16 -56 -60 11 -57 11 -60 -21 -60 -38 -1 -55 -11 -55 -34 0 -42 49 -55 74
-19 9 12 16 17 16 10 0 -8 9 -12 23 -10 27 4 36 48 13 70 -17 18 -11 54 12 63
17 6 82 -58 82 -81 0 -8 -9 -23 -21 -35 -16 -16 -18 -23 -8 -35 10 -12 3 -14
-44 -14 -68 0 -87 -7 -87 -31 0 -10 -7 -19 -15 -19 -8 0 -15 -4 -15 -10 0 -5
-9 -10 -20 -10 -11 0 -20 -4 -20 -10 0 -5 -13 -7 -30 -3 -23 4 -30 2 -30 -10
0 -8 -7 -17 -15 -21 -19 -7 -20 -36 -1 -36 8 0 17 -15 20 -35 9 -47 -2 -105
-20 -105 -8 0 -33 -17 -57 -39 -23 -21 -51 -41 -62 -45 -11 -3 -30 -21 -43
-40 -19 -27 -32 -35 -68 -41 -38 -5 -44 -10 -44 -30 0 -34 -14 -39 -115 -46
-98 -7 -123 -12 -154 -29 -30 -16 -26 -28 12 -33 17 -2 -5 -5 -50 -5 -78 -2
-83 -3 -89 -25 -12 -52 -119 -71 -197 -37 -39 17 -50 19 -67 8 -12 -8 -19 -20
-16 -30 3 -15 -3 -18 -44 -18 -38 0 -51 -5 -63 -22 -13 -19 -18 -20 -26 -9
-11 17 -41 7 -41 -13 0 -9 14 -18 35 -22 39 -7 45 -19 14 -27 -29 -8 -22 -51
8 -55 12 -2 25 -12 28 -23 4 -12 19 -22 36 -26 29 -6 37 -17 20 -28 -14 -8 -4
-94 14 -122 16 -23 15 -27 -10 -76 -15 -29 -33 -59 -40 -67 -7 -8 -20 -30 -29
-47 -18 -37 -57 -44 -92 -19 -19 15 -19 15 1 31 19 16 18 16 -25 9 -84 -13
-126 -6 -159 26 -16 17 -37 30 -46 30 -24 0 -59 -21 -47 -29 14 -9 19 -53 6
-58 -7 -2 -19 3 -27 12 -11 10 -25 13 -42 9 -16 -4 -43 1 -75 15 -80 35 -362
89 -465 90 -90 1 -249 -51 -284 -93 -8 -9 -28 -16 -48 -16 -18 0 -50 -7 -70
-15 -19 -8 -43 -15 -52 -15 -29 0 -155 -66 -186 -98 -16 -17 -33 -32 -37 -32
-14 0 -8 31 7 36 8 4 15 11 15 18 0 20 94 96 159 127 36 17 83 34 105 37 23 2
84 25 136 50 114 53 181 72 260 72 32 0 61 4 64 8 3 4 -11 16 -30 27 -51 27
-43 39 21 31 83 -9 148 31 182 113 9 20 31 59 49 87 43 64 52 106 30 139 -9
13 -16 31 -16 39 0 18 -77 61 -101 58 -8 -2 -29 4 -45 13 -16 8 -39 15 -51 15
-13 0 -52 11 -89 25 -36 14 -100 28 -143 31 -67 6 -82 4 -119 -15 -22 -11 -48
-21 -56 -21 -7 0 -16 -6 -19 -14 -3 -8 -23 -20 -44 -26 -21 -7 -45 -18 -53
-25 -12 -11 -39 -11 -135 -3 l-121 11 -43 -27 c-29 -18 -49 -41 -62 -70 -23
-54 -169 -190 -169 -158 0 38 29 89 72 124 24 20 54 46 68 60 26 24 80 128 80
152 0 7 42 50 94 95 52 45 114 105 138 134 23 29 48 55 54 59 6 4 33 39 59 78
52 77 97 120 124 120 9 0 22 5 28 11 23 23 75 -3 163 -82 48 -43 92 -79 96
-79 5 0 22 -7 38 -15 17 -9 50 -15 75 -15 25 1 78 -2 117 -6 57 -5 78 -3 108
11 31 15 41 16 60 6 17 -10 33 -10 62 -2 21 6 60 11 87 11 26 0 47 4 47 9 0 4
34 11 76 15 42 4 83 11 92 16 10 5 44 14 76 21 47 9 56 13 42 21 -14 8 -15 12
-4 25 10 12 9 17 -6 28 -17 13 -16 15 14 30 20 10 47 15 69 13 42 -6 87 8 113
34 24 24 23 36 -7 44 -13 3 -29 12 -36 20 -14 17 -100 19 -115 4 -8 -8 -19 -7
-36 1 -17 7 -32 8 -44 1 -11 -5 -33 -7 -50 -5 -18 3 -40 0 -51 -5 -10 -6 -25
-7 -31 -3 -19 12 -3 40 27 47 14 4 33 12 41 19 37 30 255 36 317 9 21 -9 61
-21 88 -27 61 -11 216 -9 268 4 32 9 37 14 37 40 0 22 6 32 25 39 14 5 25 16
25 24 0 7 14 16 30 20 17 3 30 10 30 16 0 6 -13 13 -30 17 -35 6 -39 18 -10
26 28 7 25 19 -10 39 -20 11 -33 28 -36 48 -5 23 -14 32 -41 39 -19 6 -40 16
-47 24 -18 23 -93 47 -146 47 -27 0 -51 4 -54 9 -3 5 -15 11 -26 14 -16 4 -23
-1 -30 -19 -15 -39 -78 -26 -68 14 8 31 -7 49 -27 32 -13 -11 -22 -11 -51 -1
-20 7 -38 10 -41 7 -3 -3 11 -24 31 -46 20 -22 36 -44 36 -50 0 -5 18 -13 40
-16 30 -5 40 -11 40 -26 0 -31 -28 -33 -57 -4 -20 20 -32 25 -48 20 -43 -16
-139 -8 -192 16 -58 26 -79 21 -42 -9 l24 -20 -67 -1 c-38 0 -70 5 -74 11 -9
15 16 37 50 43 27 5 45 20 46 39 0 4 -13 7 -29 7 -35 0 -48 27 -31 60 11 20
13 21 30 5 10 -9 25 -15 34 -13 13 3 13 7 1 36 -12 27 -19 32 -50 32 -28 0
-35 -4 -35 -19 0 -33 -62 -44 -76 -13 -4 9 -8 28 -8 42 -1 21 -5 24 -26 21
-14 -1 -37 -9 -52 -17 -15 -8 -39 -14 -54 -14 -15 0 -55 -7 -88 -16 -34 -8
-77 -19 -96 -24 -19 -5 -62 -12 -95 -16 -33 -4 -72 -13 -87 -20 -36 -19 -59
-18 -52 1 7 18 -26 21 -44 3 -8 -8 -15 -8 -24 0 -9 7 -18 7 -32 -3 -15 -12
-24 -12 -50 -2 -39 16 -101 8 -100 -13 0 -8 4 -34 8 -58 4 -26 3 -41 -3 -38
-5 4 -20 2 -34 -3 -36 -14 -143 19 -139 42 2 13 -5 17 -33 17 -39 0 -55 -21
-38 -49 15 -25 -32 -68 -94 -86 -61 -18 -82 -39 -66 -65 10 -14 6 -24 -21 -53
-32 -35 -35 -36 -67 -25 -60 21 -139 14 -184 -17 -25 -16 -39 -33 -37 -44 5
-32 -65 -73 -75 -43 -3 6 0 12 6 12 7 0 16 10 21 23 6 12 20 39 33 60 19 31
22 51 21 115 -1 42 3 83 8 89 7 9 5 15 -6 19 -29 11 -17 39 27 63 24 13 50 36
60 52 9 16 22 29 29 29 24 0 48 55 48 112 0 30 5 59 11 65 6 6 9 21 7 34 -3
21 -8 24 -40 23 -35 -1 -38 1 -38 27 0 26 -4 29 -31 29 -22 0 -32 5 -36 20 -6
22 -33 28 -33 6 0 -7 -8 -16 -18 -18 -42 -11 -143 -264 -181 -453 -5 -22 -22
-80 -39 -130 -17 -49 -35 -106 -40 -125 -6 -19 -25 -75 -42 -123 -24 -65 -29
-92 -21 -100 17 -17 13 -27 -9 -27 -13 0 -20 -7 -20 -20 0 -15 11 -22 45 -31
25 -6 48 -16 51 -21 7 -12 -77 -8 -93 5 -9 6 -16 1 -23 -19 -6 -16 -15 -40
-20 -54 -14 -35 -19 -336 -9 -510 5 -83 17 -181 28 -230 18 -75 50 -271 51
-309 0 -8 23 20 50 62 28 42 54 77 59 77 5 0 13 9 16 20 3 11 12 20 18 20 7 0
25 14 41 30 16 17 36 30 44 28 8 -2 22 -24 31 -50 9 -26 22 -53 29 -60 6 -6
12 -18 12 -25 0 -7 17 -29 37 -48 29 -27 34 -38 25 -47 -9 -9 -18 -6 -39 13
-16 13 -32 30 -36 37 -17 26 -85 -1 -108 -45 -7 -13 -23 -26 -36 -29 -13 -4
-23 -12 -23 -18 0 -7 -11 -18 -25 -24 -14 -6 -32 -29 -41 -49 -9 -21 -20 -45
-25 -53 -5 -8 -13 -24 -18 -36 -14 -32 -24 -371 -12 -429 30 -151 51 -229 77
-295 8 -19 20 -64 28 -98 8 -35 28 -105 45 -155 16 -51 40 -126 52 -167 38
-129 174 -466 212 -523 9 -14 28 -51 41 -81 35 -79 100 -185 141 -231 68 -75
270 -277 298 -297 15 -11 72 -42 125 -68 53 -27 110 -59 125 -72 l28 -23 -72
-55 c-40 -30 -101 -77 -136 -105 -34 -27 -84 -65 -110 -84 -63 -45 -405 -390
-463 -467 -24 -32 -62 -79 -83 -103 -56 -66 -116 -194 -127 -271 -5 -36 -16
-87 -25 -115 -23 -76 -21 -468 3 -573 12 -54 17 -120 17 -223 l0 -145 -39 -74
c-44 -85 -65 -138 -76 -195 -5 -22 -13 -58 -19 -80 -6 -22 -11 -71 -11 -110 0
-114 -30 -144 -260 -260 -63 -32 -131 -66 -150 -76 -19 -10 -61 -40 -94 -67
-47 -41 -72 -54 -129 -68 -202 -49 -300 -112 -360 -230 -23 -45 -185 -193
-237 -217 -75 -34 -81 -36 -190 -73 -124 -41 -140 -51 -203 -118 -46 -49 -117
-181 -146 -271 -8 -22 -21 -49 -31 -60 -40 -45 -54 -90 -60 -195 -6 -85 -12
-115 -33 -157 -15 -28 -31 -54 -36 -57 -5 -3 -12 -23 -16 -43 -3 -21 -21 -65
-38 -98 -116 -226 -117 -229 -117 -351 0 -103 12 -171 46 -249 25 -60 26 -116
4 -190 -11 -38 -32 -108 -46 -155 -14 -47 -33 -101 -43 -120 -10 -19 -24 -60
-31 -90 -12 -52 -28 -108 -63 -225 -9 -27 -18 -72 -22 -100 -4 -27 -16 -81
-26 -120 -10 -38 -19 -92 -19 -120 0 -27 -7 -75 -15 -105 -21 -78 -21 -366 0
-435 8 -27 15 -60 15 -73 0 -12 9 -55 20 -95 40 -148 39 -308 -4 -502 -10 -44
-25 -111 -33 -149 -17 -76 -24 -119 -47 -276 -9 -58 -22 -134 -30 -170 -9 -36
-18 -92 -21 -125 -3 -33 -12 -82 -19 -110 -8 -27 -17 -72 -20 -100 -6 -47 -17
-105 -52 -270 -8 -38 -19 -101 -24 -140 -5 -38 -16 -104 -25 -145 -10 -41 -19
-113 -20 -160 -2 -47 -11 -107 -19 -135 -9 -27 -16 -65 -16 -83 0 -18 -9 -79
-20 -135 -11 -56 -29 -149 -41 -207 -11 -58 -24 -121 -29 -140 -5 -19 -7 -53
-4 -75 3 -22 -1 -74 -10 -115 -8 -41 -10 -79 -6 -84 5 -5 274 -4 637 3 345 6
898 14 1228 16 330 3 1010 9 1510 15 501 6 1317 15 1815 20 498 6 1297 15
1775 20 2446 29 4409 48 4973 50 l423 1 14 32 c7 18 28 79 46 137 17 58 44
143 59 190 121 378 160 532 160 629 0 18 14 65 32 104 29 66 32 85 40 226 4
84 15 180 23 211 8 32 15 94 15 139 0 45 9 124 20 175 21 93 21 116 17 1608
-3 1358 -5 1518 -19 1565 -9 29 -19 113 -23 185 -4 73 -12 144 -17 158 -6 14
-14 75 -19 137 -4 62 -15 134 -23 160 -8 26 -17 106 -21 177 -3 70 -11 138
-17 150 -8 14 -14 120 -19 321 -3 179 -10 312 -17 330 -6 17 -16 120 -21 230
-5 110 -14 214 -20 230 -5 17 -14 141 -19 276 -5 135 -14 255 -20 265 -6 11
-13 53 -16 94 -7 80 -26 181 -57 297 -10 39 -19 79 -19 87 0 29 -42 168 -82
276 -45 118 -54 140 -108 260 -56 126 -66 150 -84 210 -12 41 -30 70 -73 116
-32 33 -70 73 -84 90 -61 68 -247 245 -283 269 -21 14 -57 32 -80 41 -107 38
-156 53 -211 65 -33 6 -64 16 -69 21 -6 4 -24 8 -40 8 -17 0 -52 7 -78 14 -26
8 -80 18 -120 22 -40 3 -98 13 -128 21 -30 9 -77 19 -105 23 -27 3 -77 15
-110 25 -56 17 -91 17 -495 10 -239 -4 -480 -8 -535 -8 -162 -2 -633 16 -646
23 -6 5 -15 31 -20 59 -16 104 -154 287 -282 373 -107 72 -139 103 -166 157
-57 113 -80 199 -87 326 -6 111 -10 126 -44 197 -76 159 -176 252 -305 287
-22 6 -146 15 -276 22 -260 12 -214 17 -496 -52 -49 -12 -142 -25 -208 -30
-66 -4 -136 -12 -155 -18 -19 -6 -40 -11 -46 -11 -50 0 -56 441 -8 595 9 28
22 75 30 105 8 30 24 71 35 90 12 19 27 68 35 110 9 44 25 91 40 114 16 23 29
62 35 100 4 34 15 80 23 103 8 23 18 63 22 90 3 26 21 93 39 148 35 106 60
199 75 278 5 27 21 89 35 138 28 97 29 108 40 594 6 259 6 272 -14 318 -15 34
-21 70 -21 120 0 91 -17 243 -30 268 -6 10 -11 31 -12 46 0 15 -10 64 -21 108
-12 49 -21 119 -22 180 -2 131 1 119 -46 170 -31 33 -47 65 -69 132 -24 76
-61 157 -80 173 -13 12 -30 63 -30 93 0 47 -42 101 -181 236 -124 119 -172
161 -184 161 -23 0 -172 112 -234 175 -41 42 -93 86 -114 97 -22 11 -62 38
-89 59 -35 27 -60 39 -82 39 -45 0 -137 28 -161 49 -11 10 -29 22 -40 26 -23
9 -127 25 -164 25 -13 0 -29 4 -35 9 -12 10 -105 38 -151 46 -97 16 -132 23
-145 28 -8 4 -58 9 -110 12 -317 16 -364 22 -412 56 -25 17 -47 19 -280 19
-142 0 -260 -5 -269 -10z m1431 -695 c0 -8 -4 -15 -10 -15 -5 0 -10 7 -10 15
0 8 5 15 10 15 6 0 10 -7 10 -15z m130 -183 c0 -13 -12 -22 -22 -16 -10 6 -1
24 13 24 5 0 9 -4 9 -8z m87 -304 c-3 -8 -6 -5 -6 6 -1 11 2 17 5 13 3 -3 4
-12 1 -19z m-157 -373 c0 -8 -4 -15 -10 -15 -5 0 -10 7 -10 15 0 8 5 15 10 15
6 0 10 -7 10 -15z m30 -45 c0 -5 -4 -10 -10 -10 -5 0 -10 5 -10 10 0 6 5 10
10 10 6 0 10 -4 10 -10z m-92 -14 c10 -11 -12 -26 -38 -26 -31 0 -45 13 -34
31 6 10 61 6 72 -5z m78 -56 c8 0 14 5 14 10 0 6 11 10 25 10 35 0 31 -12 -10
-34 -39 -21 -40 -21 -49 14 -3 14 -3 19 0 13 3 -7 12 -13 20 -13z m-141 -20
c-3 -5 -10 -10 -16 -10 -5 0 -9 5 -9 10 0 6 7 10 16 10 8 0 12 -4 9 -10z
m-695 -35 c0 -8 -4 -15 -10 -15 -5 0 -10 7 -10 15 0 8 5 15 10 15 6 0 10 -7
10 -15z m-1695 -27 c32 -14 32 -24 -1 -32 -31 -8 -49 5 -41 28 8 19 9 19 42 4z
m2564 -7 l23 -18 -23 -21 c-12 -12 -26 -22 -30 -22 -12 0 -21 38 -14 60 8 24
13 25 44 1z m-1100 -32 c109 -39 209 -89 183 -89 -8 0 -26 6 -40 14 -30 16
-160 56 -182 56 -7 0 -41 6 -74 14 -34 8 -78 17 -98 21 -62 10 -43 25 31 25
56 0 90 -8 180 -41z m1001 -19 c0 -5 -9 -10 -20 -10 -11 0 -20 5 -20 10 0 6 9
10 20 10 11 0 20 -4 20 -10z m-690 -106 c0 -2 -11 -4 -25 -4 -14 0 -25 4 -25
9 0 4 11 6 25 3 14 -2 25 -6 25 -8z m-1576 -23 c3 -5 -6 -11 -19 -14 -25 -4
-40 4 -28 17 9 9 41 7 47 -3z m-744 -146 c0 -8 -6 -15 -14 -15 -17 0 -28 14
-19 24 12 12 33 6 33 -9z m3420 -76 c0 -9 -7 -19 -15 -23 -18 -6 -37 26 -29
48 5 12 9 13 25 3 10 -6 19 -19 19 -28z m855 -360 c44 -19 165 -133 165 -155
0 -19 -13 -18 -26 4 -10 15 -73 50 -149 82 -16 7 -76 15 -133 18 -85 4 -110 2
-142 -13 -22 -10 -40 -23 -40 -29 0 -6 -9 -17 -20 -24 -11 -7 -20 -17 -20 -24
0 -21 -33 -48 -60 -48 -14 0 -31 -5 -37 -11 -8 -8 -18 -6 -38 7 -26 17 -27 21
-23 78 4 52 8 63 37 87 29 23 46 28 144 38 62 6 126 13 142 15 55 6 160 -7
200 -25z m-1621 -195 c9 -3 13 -10 10 -15 -7 -11 -64 -12 -64 -1 0 21 24 28
54 16z m1098 -86 c8 -7 26 -35 39 -63 13 -27 35 -68 48 -90 23 -37 40 -100 44
-170 2 -26 -2 -30 -28 -35 -21 -4 -41 -20 -69 -58 -44 -58 -63 -65 -72 -24 -3
15 -7 32 -8 37 -3 10 23 64 46 97 10 14 4 24 -46 69 -72 66 -79 78 -60 113 8
16 14 37 14 47 0 18 57 88 71 89 3 0 12 -6 21 -12z m-682 -68 c0 -5 -5 -10
-11 -10 -5 0 -7 5 -4 10 3 6 8 10 11 10 2 0 4 -4 4 -10z m1102 -40 c170 -43
172 -47 163 -280 -7 -162 -10 -184 -29 -213 -33 -50 -138 -75 -186 -44 -17 10
-22 9 -30 -3 -5 -8 -7 -22 -4 -30 4 -8 10 -35 14 -59 13 -76 64 -91 141 -42
25 15 55 41 67 56 31 39 56 129 48 174 -6 40 11 159 26 179 6 6 23 12 38 12
46 0 59 10 70 51 12 42 30 53 30 17 -1 -110 -124 -408 -199 -482 -58 -56 -130
-106 -147 -99 -7 2 -26 -5 -41 -17 -26 -19 -33 -20 -74 -9 -39 10 -77 12 -129
7 -8 -1 -41 0 -73 0 -53 2 -63 6 -93 36 -33 33 -34 35 -29 101 6 76 9 85 33
85 12 0 10 4 -7 13 -23 12 -30 37 -7 27 6 -3 38 -5 71 -5 47 0 68 5 97 25 51
34 56 55 23 90 -54 56 0 80 86 38 63 -30 135 -33 176 -5 39 26 40 30 58 132
l14 80 -56 57 c-31 32 -74 63 -97 72 -22 8 -54 20 -69 26 -16 5 -25 14 -22 20
9 15 51 12 137 -10z m358 10 c0 -5 -4 -10 -10 -10 -5 0 -10 5 -10 10 0 6 5 10
10 10 6 0 10 -4 10 -10z m5 -70 c7 -21 0 -40 -16 -40 -5 0 -9 14 -9 30 0 34
15 40 25 10z m-3588 -145 c61 -8 72 -18 48 -45 -15 -17 -18 -17 -44 -2 -17 10
-35 13 -47 8 -19 -8 -19 -8 1 -16 16 -6 11 -9 -24 -15 -36 -6 -47 -4 -56 9
-14 18 -56 21 -72 5 -8 -8 -8 -20 -3 -34 6 -17 5 -27 -6 -35 -15 -13 -18 -8
-14 23 1 15 -3 17 -19 12 -29 -9 -28 15 2 43 14 14 38 22 67 24 25 2 54 11 64
21 11 9 27 15 35 13 9 -3 40 -8 68 -11z m-257 -114 c0 -20 -13 -41 -25 -41
-15 0 -28 27 -19 41 7 12 44 12 44 0z m2925 -1 c3 -5 1 -10 -4 -10 -6 0 -11 5
-11 10 0 6 2 10 4 10 3 0 8 -4 11 -10z m-2365 -121 l65 -19 -49 5 c-27 3 -93
5 -147 5 -147 0 -126 23 26 28 22 1 69 -8 105 -19z m-1120 -20 c0 -5 -4 -9
-10 -9 -5 0 -10 7 -10 16 0 8 5 12 10 9 6 -3 10 -10 10 -16z m1667 -196 c11
-28 36 -53 53 -53 9 0 26 -11 38 -25 12 -14 28 -22 36 -19 9 3 17 -3 21 -15 3
-12 10 -21 14 -21 4 0 8 -6 8 -12 0 -7 4 -21 8 -30 5 -13 2 -18 -9 -18 -9 0
-16 -7 -16 -15 0 -8 5 -15 12 -15 27 0 -4 -12 -49 -18 -47 -7 -48 -8 -45 -40
3 -27 0 -35 -17 -39 -12 -3 -21 -13 -21 -23 0 -22 -61 -55 -127 -69 -26 -6
-61 -13 -77 -17 -22 -5 -32 -3 -42 11 -7 9 -24 18 -37 19 -13 0 -32 11 -41 23
-16 22 -16 23 6 20 19 -2 23 2 20 23 -2 19 16 42 87 111 50 48 99 90 110 94
31 10 25 23 -11 27 -23 2 -38 -3 -49 -17 -14 -17 -19 -17 -33 -6 -14 12 -19
11 -36 -4 -14 -12 -28 -16 -49 -12 -17 4 -33 2 -37 -4 -3 -5 -11 -8 -17 -6 -7
2 -25 0 -42 -5 -16 -5 -52 -13 -80 -17 -27 -5 -88 -21 -135 -35 -47 -15 -116
-35 -155 -46 -111 -31 -206 -66 -307 -114 -51 -24 -104 -47 -118 -51 -14 -4
-40 -17 -59 -28 -37 -22 -99 -53 -176 -87 -27 -13 -55 -30 -62 -39 -6 -9 -15
-13 -19 -8 -11 10 36 57 58 57 37 0 92 31 133 75 23 24 71 58 106 76 44 23 58
34 45 37 -25 5 -105 -18 -114 -33 -9 -15 -66 -45 -85 -45 -8 0 -31 -12 -52
-26 -22 -14 -41 -22 -47 -16 -10 10 34 97 69 134 34 36 304 168 393 193 14 3
39 12 55 19 17 8 82 33 145 57 110 42 119 44 225 44 61 0 157 -6 215 -14 102
-13 107 -12 195 12 112 31 104 30 112 10z m-1712 -51 c-10 -10 -16 -12 -13 -7
3 6 8 19 13 30 5 14 9 16 12 7 3 -8 -3 -21 -12 -30z m-29 -99 c-10 -10 -19 5
-10 18 6 11 8 11 12 0 2 -7 1 -15 -2 -18z m1476 -270 c27 -24 22 -33 -21 -33
-34 0 -38 3 -38 25 0 30 30 34 59 8z m-237 -303 c6 -5 17 -5 24 -1 13 8 66 6
119 -5 12 -2 22 -11 22 -20 0 -9 9 -28 21 -42 13 -17 18 -34 14 -49 -4 -18 -1
-23 15 -23 23 0 24 -4 9 -31 -8 -16 -13 -18 -25 -9 -18 16 -58 5 -83 -22 -19
-20 -26 -21 -138 -14 -65 4 -120 11 -123 16 -3 4 -24 16 -47 25 -31 12 -46 14
-61 6 -17 -9 -26 -6 -52 15 -31 27 -45 26 -45 -4 0 -13 -8 -17 -32 -16 -18 1
-33 -2 -33 -7 0 -5 -12 -9 -27 -9 l-28 0 30 28 c17 15 31 27 33 26 1 -1 28 24
60 55 50 49 61 56 97 56 32 0 39 3 37 17 -2 13 9 18 55 23 32 4 63 8 68 9 13
4 77 -14 90 -24z m411 -115 c16 -13 17 -16 4 -25 -8 -5 -28 -10 -43 -10 -20 0
-30 -6 -34 -19 -6 -24 -39 -17 -54 11 -13 23 -8 29 34 45 44 16 70 16 93 -2z
m1184 -25 c-6 -12 -19 -20 -28 -18 -26 5 -20 31 8 38 32 8 34 6 20 -20z
m-1050 5 c0 -8 -4 -15 -10 -15 -5 0 -10 7 -10 15 0 8 5 15 10 15 6 0 10 -7 10
-15z m-167 -61 c-7 -3 -10 -11 -7 -19 7 -17 -34 -31 -49 -16 -16 16 10 41 42
40 14 0 21 -3 14 -5z m107 -14 c0 -5 -7 -10 -15 -10 -8 0 -15 5 -15 10 0 6 7
10 15 10 8 0 15 -4 15 -10z m2025 -746 c-23 -17 -32 -10 -15 11 7 8 17 12 23
8 6 -4 3 -11 -8 -19z m185 11 c0 -8 -4 -15 -10 -15 -5 0 -10 7 -10 15 0 8 5
15 10 15 6 0 10 -7 10 -15z m-223 -21 c-3 -3 -12 -4 -19 -1 -8 3 -5 6 6 6 11
1 17 -2 13 -5z m134 -24 c10 0 19 -5 19 -10 0 -11 -29 -25 -72 -34 -26 -6 -41
-36 -18 -36 6 0 10 -9 10 -20 0 -17 -6 -20 -47 -19 -71 1 -88 -4 -132 -39 -37
-30 -70 -40 -83 -26 -12 12 5 43 26 46 11 2 20 9 19 16 -2 6 6 12 17 12 30 0
139 54 180 90 19 16 41 27 48 25 8 -3 22 -5 33 -5z m69 -130 c0 -6 -11 -10
-25 -10 -28 0 -32 -12 -10 -30 9 -7 26 -9 45 -5 30 7 31 6 20 -15 -9 -17 -14
-19 -26 -10 -7 7 -21 10 -29 6 -18 -7 -20 -43 -2 -49 6 -2 9 -8 4 -12 -4 -5
-14 0 -21 11 -12 15 -18 17 -34 8 -22 -14 -52 -1 -52 22 0 10 8 14 23 12 18
-2 23 2 25 27 2 17 4 35 6 41 5 13 76 17 76 4z m-197 -26 c42 -7 50 -24 11
-24 -14 0 -34 -4 -44 -10 -20 -11 -47 11 -35 30 7 12 16 12 68 4z m-183 -64
c0 -11 -6 -20 -13 -20 -19 0 -27 10 -20 26 8 21 33 17 33 -6z m80 -10 c0 -5
-6 -10 -14 -10 -8 0 -18 5 -21 10 -3 6 3 10 14 10 12 0 21 -4 21 -10z m160
-11 c0 -14 -70 -79 -84 -79 -6 0 -34 -12 -63 -26 -35 -18 -60 -25 -77 -20 -35
9 -33 21 7 36 17 6 70 31 117 55 94 48 100 50 100 34z m73 -46 c-7 -2 -19 -2
-25 0 -7 3 -2 5 12 5 14 0 19 -2 13 -5z m-58 -24 c10 -15 -1 -23 -20 -15 -9 3
-13 10 -10 16 8 13 22 13 30 -1z m-40 -44 c0 -31 -49 -28 -53 3 -3 20 0 23 25
20 20 -2 28 -8 28 -23z m-95 -30 c0 -8 -4 -15 -10 -15 -5 0 -10 7 -10 15 0 8
5 15 10 15 6 0 10 -7 10 -15z m170 -5 c24 -13 15 -40 -14 -40 -11 0 -29 -7
-39 -14 -18 -14 -17 -14 2 -21 12 -3 21 -11 21 -16 0 -5 7 -9 15 -9 8 0 15 5
15 10 0 6 7 10 16 10 11 0 14 -8 12 -32 -2 -28 -8 -34 -30 -36 -24 -3 -28 0
-28 23 0 17 -5 25 -12 22 -7 -2 -12 -17 -11 -32 2 -27 1 -28 -43 -21 -41 5
-84 -7 -84 -25 0 -3 33 -6 73 -6 84 0 117 -8 117 -30 0 -12 -8 -14 -35 -10
-24 4 -35 2 -35 -7 0 -16 20 -36 37 -36 14 0 98 39 162 75 24 14 55 25 68 25
28 0 31 -26 3 -33 -14 -4 -21 -17 -26 -55 -8 -60 -16 -75 -37 -66 -12 4 -15
13 -10 37 l6 32 -31 -30 c-18 -16 -32 -34 -32 -40 0 -13 40 -39 60 -41 8 -1
23 -2 33 -3 21 -1 23 -37 1 -45 -31 -12 -56 -6 -61 14 -8 29 -29 18 -25 -13 2
-21 -3 -26 -35 -34 -56 -13 -51 -29 12 -30 30 -1 55 3 55 8 0 21 60 8 84 -17
15 -17 34 -26 52 -26 42 0 47 -7 29 -34 -10 -16 -13 -30 -7 -40 7 -13 12 -11
28 13 10 15 22 35 27 43 4 8 4 -7 1 -34 -7 -61 -39 -147 -61 -163 -8 -7 -13
-19 -10 -27 8 -19 -54 -90 -92 -106 -16 -6 -31 -20 -34 -31 -3 -10 -12 -19
-20 -19 -8 0 -41 -25 -73 -56 -32 -31 -70 -62 -84 -69 -14 -7 -35 -26 -46 -41
-10 -16 -34 -43 -51 -62 -18 -19 -33 -38 -33 -42 0 -5 -56 -65 -124 -134 -67
-69 -131 -137 -140 -151 -19 -28 -51 -33 -60 -9 -4 9 -5 18 -4 18 2 1 16 8 32
14 22 10 26 16 18 24 -16 16 -15 28 3 28 7 0 19 -8 25 -17 8 -14 9 -6 4 35 -5
48 -4 52 14 52 12 0 23 -9 27 -20 3 -11 11 -20 16 -20 18 0 22 31 6 48 -15 16
-15 19 3 30 11 7 28 12 39 12 10 0 26 12 36 26 9 14 32 32 51 40 19 8 34 21
34 29 0 8 4 15 9 15 5 0 11 11 15 23 7 31 115 143 133 139 7 -2 13 4 13 13 0
8 -4 15 -9 15 -21 0 -61 -20 -61 -30 0 -11 -67 -74 -82 -76 -4 -1 -12 -2 -18
-3 -5 0 -10 -14 -10 -29 0 -34 -33 -72 -61 -72 -12 0 -34 -8 -50 -17 -15 -9
-32 -13 -36 -9 -4 5 -2 11 5 13 22 8 12 23 -12 17 -14 -3 -27 -1 -31 6 -5 8
-20 0 -45 -25 -21 -21 -43 -34 -49 -31 -5 4 -15 -3 -21 -15 -9 -15 -15 -18
-23 -10 -7 7 -6 16 7 30 14 16 15 23 6 40 -6 12 -15 19 -21 16 -5 -4 -9 3 -9
14 0 12 9 26 20 33 27 17 25 28 -5 28 -14 0 -28 -7 -32 -16 -4 -12 -14 -14
-40 -9 -25 4 -35 2 -39 -9 -5 -14 -8 -14 -21 0 -9 8 -21 13 -27 11 -46 -17
-58 -18 -54 -6 2 8 35 22 72 31 70 18 116 41 116 59 0 18 -30 22 -48 6 -22
-20 -92 -34 -92 -18 0 6 5 11 10 11 16 0 12 27 -5 34 -23 8 -18 26 8 27 16 1
17 3 5 6 -22 6 -58 -14 -58 -32 0 -11 -12 -15 -40 -15 -48 0 -55 20 -7 21 17
0 26 3 20 6 -17 6 -17 23 0 23 21 0 68 57 61 74 -8 21 -12 20 -32 -3 -20 -22
-79 -44 -87 -31 -3 5 4 15 16 24 13 9 19 21 16 30 -8 20 -23 20 -31 1 -7 -19
-66 -20 -66 -1 0 20 27 39 45 32 10 -4 15 1 15 14 0 11 6 20 14 20 7 0 19 6
25 14 10 11 8 16 -9 21 -21 7 -54 -13 -73 -42 -9 -14 -37 -18 -37 -5 0 4 18
30 40 57 22 28 40 55 40 62 0 6 16 30 35 53 19 23 35 45 35 48 0 4 23 31 50
60 28 30 50 62 50 73 0 10 4 19 8 19 5 0 18 17 29 38 12 20 36 50 53 67 17 16
40 49 50 72 15 35 24 43 46 43 19 0 25 -4 20 -15 -3 -9 0 -15 8 -15 8 0 16 7
20 15 3 8 18 15 33 15 14 0 37 10 50 21 19 18 25 20 38 9 13 -10 20 -8 43 15
46 47 68 58 91 46 18 -10 22 -7 36 19 8 16 20 30 26 30 6 0 7 5 4 10 -3 6 -15
10 -26 10 -35 0 -15 24 27 33 21 4 42 14 47 22 9 18 21 19 47 5z m70 0 c0 -5
-7 -10 -15 -10 -8 0 -15 5 -15 10 0 6 7 10 15 10 8 0 15 -4 15 -10z m-335 -30
c4 -6 -10 -10 -39 -10 -27 0 -46 -5 -46 -11 0 -8 -5 -8 -15 1 -8 7 -15 15 -15
19 0 11 108 12 115 1z m495 0 c0 -5 -7 -10 -15 -10 -8 0 -15 5 -15 10 0 6 7
10 15 10 8 0 15 -4 15 -10z m-75 -35 c0 -11 -8 -21 -17 -23 -14 -3 -18 3 -18
23 0 20 4 26 18 23 9 -2 17 -12 17 -23z m-345 -16 c0 -5 -7 -9 -15 -9 -8 0
-23 -9 -33 -21 -23 -27 -54 -45 -46 -26 6 17 -21 41 -36 32 -6 -4 -10 -14 -8
-23 4 -21 -36 -55 -59 -50 -31 6 -28 38 6 50 16 7 32 21 35 31 4 17 11 19 53
14 34 -5 54 -2 67 8 19 14 36 12 36 -6z m460 -69 c0 -5 -5 -10 -11 -10 -5 0
-7 5 -4 10 3 6 8 10 11 10 2 0 4 -4 4 -10z m-700 -29 c0 -12 -20 -25 -27 -18
-7 7 6 27 18 27 5 0 9 -4 9 -9z m685 -101 c3 -5 -1 -10 -9 -10 -9 0 -16 5 -16
10 0 6 4 10 9 10 6 0 13 -4 16 -10z m13 -78 c2 -8 -9 -12 -35 -12 -38 1 -38 1
-13 15 28 16 42 15 48 -3z m2 -82 c0 -5 -9 -10 -21 -10 -11 0 -17 5 -14 10 3
6 13 10 21 10 8 0 14 -4 14 -10z m-1175 -440 c3 -6 -1 -13 -10 -16 -19 -8 -30
0 -20 15 8 14 22 14 30 1z m20 -80 c3 -5 -7 -12 -22 -16 -15 -3 -40 -9 -55
-14 -36 -11 -44 0 -16 22 25 19 83 24 93 8z m69 -75 c3 -8 12 -15 21 -15 8 0
15 -4 15 -10 0 -5 -9 -10 -20 -10 -11 0 -20 5 -20 10 0 6 -7 10 -15 10 -16 0
-20 12 -8 23 10 11 20 8 27 -8z m-74 -5 c13 -8 12 -10 -5 -11 -11 -1 -31 -1
-44 0 -12 1 -29 -6 -35 -15 -9 -12 -15 -14 -20 -5 -5 7 5 17 26 26 39 17 58
18 78 5z m351 -263 c-5 -5 -18 -7 -28 -3 -14 6 -15 9 -4 16 19 11 46 1 32 -13z
m84 0 c0 -26 -20 -25 -23 2 -3 16 1 22 10 19 7 -3 13 -12 13 -21z m-145 8 c0
-10 -40 -24 -54 -19 -28 11 -17 24 19 24 19 0 35 -2 35 -5z m70 -155 c0 -5 -9
-10 -21 -10 -11 0 -17 5 -14 10 3 6 13 10 21 10 8 0 14 -4 14 -10z m-75 -50
c3 -5 1 -10 -4 -10 -6 0 -11 5 -11 10 0 6 2 10 4 10 3 0 8 -4 11 -10z m85 -40
c0 -34 -113 -82 -124 -53 -11 27 -6 33 27 33 18 0 42 7 53 15 22 17 44 19 44
5z m-223 -46 c-3 -3 -12 -4 -19 -1 -8 3 -5 6 6 6 11 1 17 -2 13 -5z m183 -34
c0 -5 -8 -17 -19 -27 -10 -10 -21 -31 -25 -47 -4 -16 -37 -61 -74 -100 -37
-39 -105 -114 -152 -166 -46 -52 -89 -99 -95 -105 -6 -5 -33 -39 -60 -75 -27
-36 -57 -73 -67 -83 -10 -10 -18 -22 -18 -26 0 -14 -77 -84 -160 -146 -155
-116 -248 -206 -341 -330 -84 -111 -87 -115 -102 -115 -25 0 -121 37 -182 70
-33 18 -96 43 -140 55 -69 19 -80 25 -77 42 2 13 -4 22 -15 25 -23 6 -45 -1
-37 -13 9 -15 -33 -10 -45 5 -7 8 -37 22 -67 32 -30 9 -57 20 -59 24 -8 13 65
22 80 10 18 -15 181 -3 245 17 111 35 194 79 247 131 30 28 33 36 27 67 -4 21
-2 41 5 49 6 7 10 36 9 64 -3 51 -3 52 -35 52 -18 0 -33 -4 -33 -9 0 -4 -30
-7 -67 -6 -37 1 -77 -2 -88 -7 -26 -12 -242 5 -307 24 -68 20 -72 32 -8 24
143 -18 172 -18 260 -2 50 10 110 24 133 32 23 9 80 27 127 40 47 13 94 29
105 34 11 5 38 14 60 21 22 6 67 24 100 40 33 16 114 48 180 73 113 41 210 83
298 127 22 10 43 19 49 19 5 0 51 20 101 44 51 25 109 52 130 60 45 18 48 36
7 36 -30 0 -90 24 -90 36 0 4 17 3 38 0 94 -15 112 -16 112 -7 0 8 16 16 43
20 4 0 7 -3 7 -9z m-170 -58 c0 -5 -11 -14 -25 -20 -20 -9 -25 -9 -25 2 0 7 3
16 7 19 9 10 43 9 43 -1z m-1247 -2129 c9 -2 17 -8 17 -12 0 -4 -52 -59 -115
-122 -115 -113 -165 -148 -217 -149 -30 0 -270 -78 -338 -110 -25 -11 -72 -39
-105 -61 -33 -21 -68 -42 -77 -45 -10 -4 -18 -10 -18 -14 0 -3 -32 -29 -71
-56 -39 -27 -92 -69 -118 -93 -25 -24 -68 -60 -96 -81 -105 -78 -173 -153
-216 -235 -51 -99 -57 -105 -149 -173 -41 -30 -91 -72 -111 -93 -37 -40 -89
-139 -129 -244 -12 -33 -26 -69 -30 -80 -17 -41 -42 -122 -60 -192 -26 -105
-53 -145 -147 -219 -141 -112 -182 -168 -202 -279 -7 -35 -28 -84 -56 -131
-25 -41 -48 -88 -52 -104 -5 -30 -5 -30 38 -30 41 0 125 35 362 151 50 24 87
29 87 12 0 -3 -22 -42 -49 -87 -26 -44 -65 -112 -85 -150 -20 -38 -50 -86 -66
-106 -17 -21 -30 -42 -30 -46 0 -5 -9 -20 -19 -33 -14 -18 -32 -26 -67 -30
-48 -6 -49 -6 -56 -48 -6 -38 -70 -141 -98 -158 -5 -3 -10 -20 -10 -36 0 -23
7 -34 35 -50 43 -25 49 -49 42 -142 -4 -40 -9 -101 -12 -137 -3 -36 -9 -87
-13 -115 -10 -62 -7 -174 5 -186 5 -5 24 1 44 16 40 27 48 53 50 165 0 36 4
85 7 110 6 41 11 46 55 68 27 12 52 20 57 17 5 -3 9 -62 8 -131 -1 -141 4
-156 50 -129 29 18 30 19 35 129 4 95 10 122 36 185 22 51 31 89 31 126 0 63
7 85 27 85 11 0 13 -7 9 -25 -4 -14 -3 -25 2 -25 14 0 32 23 32 40 0 9 9 25
20 35 11 10 20 24 20 32 0 7 7 25 16 38 9 13 13 29 9 35 -3 5 -1 10 4 10 6 0
11 6 12 13 0 6 10 35 23 62 21 46 23 48 34 29 8 -15 8 -65 2 -175 -7 -132 -13
-166 -38 -239 -27 -76 -49 -147 -57 -190 -2 -8 -6 -27 -10 -42 -8 -33 0 -35
50 -11 27 13 36 24 41 52 20 121 27 135 74 158 47 23 105 30 115 13 3 -5 10
-35 15 -67 5 -31 14 -61 19 -66 5 -5 26 -3 51 4 46 14 45 7 16 112 -9 32 -20
106 -25 165 -6 59 -22 153 -36 209 -14 57 -29 129 -33 160 l-7 58 -58 -3 c-51
-3 -57 -2 -57 16 0 11 4 22 9 24 4 2 65 104 133 228 119 213 128 226 171 248
50 26 262 87 422 122 33 7 116 28 185 47 129 36 314 74 455 94 49 7 152 10
268 7 216 -6 219 -4 74 60 -56 25 -109 58 -148 93 -33 29 -70 60 -82 68 -75
49 -166 180 -208 296 -14 41 -22 50 -41 50 -17 0 -24 -6 -26 -25 -2 -14 -8
-30 -12 -35 -5 -6 -16 -33 -25 -60 -19 -57 -40 -84 -54 -70 -34 37 -43 163
-15 217 15 29 19 78 6 78 -4 0 -39 -34 -76 -75 -58 -64 -73 -75 -99 -74 -18 0
-26 3 -19 6 6 2 12 11 12 19 0 9 -4 12 -10 9 -16 -10 -12 23 6 51 10 14 30 32
45 40 16 8 29 22 29 31 0 30 24 83 37 83 7 0 13 11 13 25 0 15 6 25 14 25 8 0
18 10 21 23 4 12 18 36 31 54 13 17 24 36 24 41 0 5 7 15 15 22 8 7 15 20 15
29 0 9 10 21 23 26 12 6 24 21 25 35 2 13 22 46 44 73 39 46 41 47 55 27 8
-11 23 -20 34 -20 29 0 77 27 89 50 6 11 23 23 38 27 15 3 48 17 74 30 62 31
95 37 173 28 82 -8 86 -27 14 -70 -61 -36 -129 -103 -129 -127 0 -10 -9 -23
-20 -30 -11 -7 -20 -22 -20 -34 0 -20 6 -22 68 -26 89 -5 191 -61 217 -118 20
-43 17 -68 -8 -84 -14 -9 -21 -6 -41 17 -23 27 -130 72 -147 62 -4 -3 -17 0
-29 7 -14 9 -25 10 -36 3 -34 -21 -23 -32 80 -76 50 -21 93 -48 133 -83 12
-10 33 -24 45 -30 42 -20 85 -134 57 -151 -14 -9 -99 23 -99 37 0 7 -14 8 -37
5 -37 -6 -113 9 -113 23 0 16 -64 80 -81 80 -17 0 -16 -5 8 -75 l27 -76 -27
-54 c-15 -30 -32 -55 -39 -55 -17 0 -86 74 -100 108 -7 15 -20 36 -29 47 -10
11 -19 31 -21 45 -2 17 -9 25 -23 25 -16 0 -20 -6 -19 -32 2 -37 27 -89 87
-182 55 -86 227 -215 394 -297 65 -32 120 -60 123 -61 6 -4 185 136 223 174
16 15 40 51 54 78 14 28 46 83 70 124 28 46 41 77 35 83 -6 6 -17 -3 -30 -24
-11 -18 -43 -64 -70 -103 -59 -84 -80 -90 -102 -27 -14 42 -14 45 12 93 30 57
21 64 -19 13 -29 -37 -70 -64 -98 -64 -8 0 -34 -13 -57 -30 -50 -37 -68 -38
-68 -6 0 62 120 180 236 231 28 13 55 28 58 34 20 31 -122 -13 -156 -49 -44
-47 -73 -9 -36 48 30 44 140 112 183 112 45 0 60 13 45 39 -6 12 -13 32 -15
44 -3 12 -15 30 -27 40 -51 40 -58 47 -58 57 0 44 191 47 241 4 29 -25 46 -17
53 27 4 22 4 44 1 50 -10 15 96 111 132 121 47 13 73 -4 73 -46 0 -19 -7 -39
-15 -46 -13 -11 -22 -60 -11 -60 2 0 20 7 41 16 54 22 169 24 191 2 29 -28 11
-48 -44 -48 -28 0 -56 -6 -68 -15 -17 -14 -13 -14 47 -9 54 5 80 2 153 -20 95
-29 113 -48 78 -77 -15 -12 -33 -16 -59 -13 -79 9 -188 4 -202 -10 -11 -12 -7
-17 30 -34 52 -23 82 -54 77 -79 -3 -14 -13 -18 -47 -18 -50 0 -58 -11 -42
-56 8 -23 7 -37 -7 -64 -9 -19 -22 -35 -29 -35 -23 0 -64 20 -118 60 -29 22
-56 36 -59 31 -3 -4 0 -35 6 -68 9 -51 8 -66 -7 -106 -24 -62 -47 -63 -75 -1
-11 26 -20 53 -20 60 0 29 -32 13 -47 -23 -8 -21 -30 -58 -47 -83 -18 -25 -47
-76 -66 -113 -26 -53 -52 -86 -123 -152 -50 -47 -89 -87 -86 -89 12 -12 455
133 599 196 14 6 39 17 55 24 34 14 127 39 325 84 74 17 171 40 215 50 44 11
145 26 224 35 79 8 176 22 215 30 39 7 136 23 216 35 80 11 165 25 190 29 25
5 81 15 125 21 194 28 235 43 293 107 40 45 40 69 3 148 -46 96 -106 183 -179
260 -84 87 -116 108 -272 184 -69 34 -143 71 -165 83 -105 59 -181 102 -190
110 -48 38 -269 176 -321 199 -60 27 -75 30 -143 26 -80 -4 -377 -47 -496 -71
-107 -22 -251 -28 -387 -16 -192 16 -406 47 -463 65 -43 14 -190 35 -242 35
-44 0 -49 15 -13 40 16 12 30 28 30 36 0 8 4 14 8 14 4 0 16 15 27 33 10 17
23 35 29 39 23 16 360 3 566 -22 47 -6 112 -12 145 -15 33 -3 97 -10 141 -17
80 -11 182 -7 279 11 28 5 113 18 190 29 78 11 177 30 220 42 63 18 93 21 144
16 107 -11 171 -43 441 -222 137 -90 315 -188 435 -239 79 -33 111 -50 165
-89 110 -78 206 -186 277 -310 19 -33 47 -81 61 -106 49 -80 119 -244 156
-361 62 -198 110 -465 87 -492 -6 -8 -41 -17 -81 -21 -119 -11 -241 -94 -285
-196 -26 -59 -27 -160 -1 -215 49 -106 168 -183 299 -192 64 -5 80 -9 89 -26
13 -26 -4 -194 -38 -367 -23 -118 -35 -167 -70 -285 -8 -27 -18 -64 -23 -80
-4 -17 -13 -39 -19 -50 -5 -11 -22 -54 -36 -94 -14 -40 -30 -79 -34 -85 -5 -6
-28 -58 -52 -116 -49 -120 -103 -231 -134 -275 -23 -33 -30 -44 -64 -106 -12
-22 -47 -73 -76 -113 -29 -40 -58 -81 -64 -92 -12 -22 -69 -95 -101 -129 -10
-11 -24 -31 -31 -44 -16 -31 -26 -43 -72 -89 -21 -20 -38 -42 -38 -49 0 -6 -4
-13 -8 -15 -7 -3 -109 -131 -160 -201 -13 -18 -34 -43 -48 -58 -13 -14 -24
-30 -24 -37 0 -6 -35 -47 -77 -91 -43 -43 -92 -94 -110 -112 -20 -22 -67 -49
-135 -78 -56 -25 -175 -79 -263 -122 -88 -42 -194 -92 -235 -109 -41 -18 -97
-43 -125 -55 -66 -30 -104 -41 -200 -59 -113 -22 -349 -78 -490 -116 -105 -29
-137 -33 -250 -34 -137 -1 -140 -1 -297 60 -78 30 -98 34 -187 34 -92 0 -229
-19 -381 -54 -167 -38 -211 -50 -288 -82 -190 -80 -260 -91 -462 -75 -220 17
-378 63 -449 129 -14 13 -36 31 -49 40 -13 8 -35 36 -49 61 -57 100 -95 151
-178 237 -108 111 -122 129 -176 233 -36 68 -66 106 -159 201 -86 87 -129 139
-171 210 -50 86 -99 182 -99 195 0 3 -21 47 -46 97 -80 163 -144 329 -144 376
0 10 22 57 48 103 27 46 68 131 92 189 42 102 42 107 37 189 -5 69 -11 89 -32
117 -50 65 -118 81 -190 44 -34 -17 -41 -18 -54 -6 -12 12 -12 36 -2 158 24
285 61 371 319 743 32 45 45 76 53 125 7 36 19 79 28 97 26 52 111 133 196
189 102 67 117 84 145 169 13 39 31 88 40 110 10 22 21 58 25 80 15 84 58 200
82 223 33 31 45 19 26 -26 -9 -20 -19 -50 -24 -67 -16 -53 15 -6 36 55 21 64
58 121 133 207 29 34 53 64 53 67 -1 3 -1 10 -1 14 0 5 41 51 91 103 75 78 90
89 85 66 -5 -19 -3 -26 4 -22 5 3 10 18 10 32 0 15 9 36 19 47 11 12 35 46 53
78 38 65 222 309 264 352 16 16 61 53 99 83 39 30 91 71 117 91 42 33 73 51
176 106 15 7 45 21 67 29 22 8 64 25 93 36 61 25 216 67 317 86 68 13 152 17
188 8z m7047 -133 c0 -5 -4 -10 -9 -10 -6 0 -13 5 -16 10 -3 6 1 10 9 10 9 0
16 -4 16 -10z m-7890 -853 c0 -26 -64 -98 -85 -95 -31 5 -31 38 2 65 46 39 83
52 83 30z m-1230 -11 c0 -3 -4 -8 -10 -11 -5 -3 -10 -1 -10 4 0 6 5 11 10 11
6 0 10 -2 10 -4z m4279 -100 c11 -13 9 -56 -5 -123 -2 -13 -22 -35 -44 -49
-35 -23 -47 -26 -94 -21 -38 4 -60 1 -73 -8 -21 -17 -59 -19 -68 -5 -4 6 -24
0 -51 -16 -35 -21 -54 -25 -84 -21 -29 4 -43 1 -55 -13 -16 -18 -59 -29 -125
-33 -48 -3 -51 23 -5 64 29 27 33 34 20 41 -22 13 -19 29 10 61 34 36 89 59
117 48 16 -6 31 -1 57 17 30 20 44 23 82 19 26 -3 50 -2 55 2 18 14 84 32 102
27 9 -3 28 1 42 9 32 18 104 19 119 1z m-3681 -772 c2 -13 -8 -25 -28 -37 -20
-12 -30 -26 -30 -42 0 -14 -17 -42 -42 -69 -38 -39 -47 -44 -75 -39 -27 4 -33
10 -33 30 0 54 43 104 130 152 60 33 74 34 78 5z m4945 -151 c46 -27 82 -99
73 -146 -15 -81 -110 -145 -202 -134 -52 5 -89 29 -121 77 -53 77 -5 188 96
221 38 12 118 3 154 -18z m-4989 -881 c3 -5 13 -47 22 -95 19 -96 16 -105 -39
-134 -26 -13 -31 -13 -44 0 -13 13 -13 22 1 79 9 35 16 82 16 104 0 23 3 44 7
47 9 10 31 9 37 -1z m-548 -267 c19 -15 19 -15 -5 -35 -29 -25 -38 -25 -51 1
-23 43 15 66 56 34z m-440 -206 c15 -16 19 -36 19 -88 0 -58 -4 -75 -30 -117
-36 -57 -70 -80 -107 -71 -21 6 -31 19 -47 62 -18 48 -19 62 -10 108 13 59 41
104 73 117 39 16 82 11 102 -11z m-1232 -2144 c-20 -38 -34 -45 -34 -18 0 18
40 66 48 58 3 -3 -3 -21 -14 -40z m2499 -545 c26 -11 47 -24 47 -28 0 -9 -72
-70 -110 -94 -14 -9 -41 -18 -60 -20 l-35 -3 -3 47 c-2 26 2 66 8 89 l11 42
47 -6 c26 -3 68 -15 95 -27z"/>
<path d="M8146 14384 c-4 -12 -13 -14 -32 -10 -18 5 -25 3 -22 -5 2 -7 13 -13
24 -14 10 -1 25 -4 33 -6 8 -2 17 7 22 24 5 19 4 27 -6 27 -7 0 -16 -7 -19
-16z"/>
<path d="M7764 12086 c-5 -13 -14 -17 -33 -13 -20 4 -31 -1 -45 -20 -15 -20
-16 -27 -6 -33 17 -11 39 -1 80 33 24 21 30 31 22 39 -8 8 -13 7 -18 -6z"/>
<path d="M7822 12036 c-19 -7 -38 -19 -43 -29 -6 -9 -17 -17 -24 -17 -18 0
-20 -40 -2 -41 30 -3 53 4 65 19 11 14 14 15 22 3 7 -12 12 -12 35 3 23 15 24
19 12 29 -8 7 -18 19 -23 28 -8 14 -14 14 -42 5z"/>
<path d="M7620 11940 c-23 -5 -27 -8 -12 -9 12 0 22 -5 22 -10 0 -4 16 -3 35
3 67 21 34 33 -45 16z"/>
<path d="M7985 11940 c-3 -5 3 -10 14 -10 12 0 21 5 21 10 0 6 -6 10 -14 10
-8 0 -18 -4 -21 -10z"/>
<path d="M7895 11899 c-16 -5 -35 -15 -41 -23 -6 -9 -23 -20 -39 -26 -25 -10
-27 -12 -13 -26 13 -13 18 -13 49 3 19 10 36 22 38 27 2 5 12 17 23 28 24 24
21 27 -17 17z"/>
<path d="M7867 11794 c-10 -11 3 -24 24 -24 11 0 19 -7 19 -16 0 -8 4 -13 10
-9 14 9 -10 55 -30 55 -9 0 -20 -3 -23 -6z"/>
<path d="M7690 11775 c-13 -16 -8 -18 28 -9 12 4 22 10 22 15 0 15 -37 10 -50
-6z"/>
<path d="M7777 11772 c-23 -25 -22 -27 11 -26 41 1 56 12 41 30 -16 19 -33 18
-52 -4z"/>
<path d="M8045 11760 c-17 -7 -15 -9 13 -9 17 -1 32 4 32 9 0 12 -17 12 -45 0z"/>
<path d="M7873 11718 c2 -7 10 -13 17 -13 7 0 15 6 18 13 2 7 -5 12 -18 12
-13 0 -20 -5 -17 -12z"/>
<path d="M7930 11711 c0 -25 19 -38 31 -20 12 19 6 33 -14 37 -11 2 -17 -3
-17 -17z"/>
<path d="M7970 11655 c-7 -8 -20 -15 -30 -15 -19 0 -46 -27 -37 -37 10 -9 101
19 114 36 7 9 13 19 13 24 0 13 -47 7 -60 -8z"/>
<path d="M8198 11643 c-29 -7 -20 -23 12 -23 20 0 30 5 30 15 0 15 -9 17 -42
8z"/>
<path d="M8066 11625 c-3 -8 -15 -15 -26 -15 -11 0 -20 -5 -20 -11 0 -7 16 -8
48 -3 26 3 48 7 49 8 0 0 -9 9 -22 18 -20 15 -24 15 -29 3z"/>
<path d="M8005 11560 c-3 -5 -3 -14 0 -20 3 -5 1 -18 -4 -28 -7 -13 -6 -23 2
-31 9 -10 8 -15 -6 -26 -17 -13 -16 -14 20 -24 60 -17 70 -14 44 12 -18 20
-19 26 -8 35 7 6 24 11 38 10 46 -3 79 2 79 12 0 5 -7 7 -16 3 -20 -7 -36 16
-28 41 4 12 2 16 -5 12 -6 -4 -11 -16 -11 -28 0 -15 -4 -18 -17 -13 -10 4 -27
8 -38 9 -15 1 -19 7 -17 24 3 23 -21 32 -33 12z"/>
<path d="M7234 11509 c-7 -12 15 -31 31 -26 6 2 11 11 13 20 4 19 -32 24 -44
6z"/>
<path d="M7715 11421 c6 -10 51 -8 62 2 3 4 -10 7 -31 7 -20 0 -35 -4 -31 -9z"/>
<path d="M7848 11373 c-29 -7 -21 -25 10 -21 15 2 26 7 25 13 -2 12 -12 14
-35 8z"/>
<path d="M7483 11320 c-27 -11 -31 -40 -6 -40 21 0 92 33 93 43 0 10 -60 8
-87 -3z"/>
<path d="M7627 11303 c-19 -18 -8 -22 96 -39 41 -6 112 19 102 37 -9 13 -28
11 -61 -6 -36 -19 -73 -19 -98 0 -22 17 -29 18 -39 8z"/>
<path d="M7515 11215 c-4 -11 -11 -28 -15 -37 -7 -13 -5 -18 10 -23 39 -12 54
23 26 61 -14 19 -15 19 -21 -1z"/>
<path d="M6015 9630 c-3 -6 5 -10 19 -10 14 0 28 5 31 10 3 6 -5 10 -19 10
-14 0 -28 -4 -31 -10z"/>
<path d="M6160 9590 c0 -5 5 -10 10 -10 6 0 10 5 10 10 0 6 -4 10 -10 10 -5 0
-10 -4 -10 -10z"/>
<path d="M6070 9570 c32 -25 63 -26 58 -2 -2 12 -14 18 -43 20 l-40 2 25 -20z"/>
<path d="M6200 8380 c-13 -8 -12 -10 3 -10 9 0 17 5 17 10 0 12 -1 12 -20 0z"/>
<path d="M4550 7475 c0 -8 2 -15 4 -15 2 0 6 7 10 15 3 8 1 15 -4 15 -6 0 -10
-7 -10 -15z"/>
<path d="M4473 7407 c-32 -21 -42 -37 -25 -37 5 0 17 9 27 20 10 11 24 20 32
20 7 0 13 5 13 10 0 15 -11 12 -47 -13z"/>
<path d="M5353 7205 c-3 -9 -3 -18 0 -21 9 -9 27 6 27 22 0 19 -19 18 -27 -1z"/>
<path d="M8540 6657 l-34 -12 -27 -135 c-52 -255 -119 -616 -119 -634 0 -16 6
-17 48 -11 26 4 50 9 53 11 4 2 9 35 13 73 5 53 13 75 31 95 22 24 31 26 103
26 52 0 83 -4 89 -12 5 -7 15 -42 22 -78 15 -78 31 -93 86 -84 22 3 41 7 42 8
2 2 -6 36 -17 77 -11 41 -27 103 -35 139 -9 36 -20 81 -25 100 -6 19 -22 94
-36 165 -14 72 -32 160 -40 198 -7 37 -16 72 -19 77 -8 14 -92 12 -135 -3z
m82 -252 c4 -16 14 -57 22 -90 7 -33 17 -68 21 -78 13 -33 -21 -57 -82 -57
-52 0 -53 1 -53 29 0 28 25 177 36 214 9 30 47 17 56 -18z"/>
<path d="M8054 6583 c-16 -3 -24 -14 -29 -40 -10 -57 -7 -695 4 -706 6 -6 25
-7 52 -1 l42 9 -1 363 c-1 200 -4 368 -7 373 -6 9 -22 10 -61 2z"/>
<path d="M7718 6543 c-10 -2 -18 -10 -18 -16 -2 -141 -14 -364 -20 -371 -19
-19 -37 7 -89 125 -113 260 -95 231 -138 224 -71 -12 -73 -14 -74 -53 0 -20
-2 -95 -4 -167 -4 -154 -4 -143 -6 -362 -1 -193 -2 -193 68 -176 l38 9 1 197
c1 211 7 239 43 202 10 -11 42 -78 71 -150 29 -71 58 -143 65 -160 7 -16 15
-38 19 -47 6 -21 58 -24 101 -8 l26 10 -1 183 c-1 100 -1 191 -1 202 0 11 -2
94 -4 185 -3 91 -5 168 -5 173 0 7 -43 8 -72 0z"/>
<path d="M6970 6401 c-217 -81 -198 -71 -205 -110 -6 -37 -24 -229 -29 -316
-7 -95 -26 -256 -32 -266 -4 -6 14 -9 48 -7 l53 3 10 140 c6 77 14 146 18 153
11 17 62 15 77 -3 6 -8 35 -72 63 -142 l52 -128 58 -3 c31 -2 57 1 57 6 0 4
-8 26 -19 48 -111 233 -114 249 -46 309 l48 42 5 111 c6 137 1 155 -42 176
-19 9 -36 16 -38 15 -1 0 -37 -13 -78 -28z m58 -164 c3 -69 0 -81 -18 -97 -22
-19 -142 -46 -159 -35 -15 9 -14 147 2 168 17 23 85 45 132 44 l40 -2 3 -78z"/>
<path d="M6355 6223 c-49 -8 -103 -16 -120 -19 -16 -3 -42 -15 -58 -27 -37
-31 -55 -123 -62 -309 -3 -79 -9 -158 -15 -176 -12 -43 -7 -54 36 -78 34 -20
36 -20 127 -2 114 22 138 32 183 73 32 30 37 40 45 109 5 41 14 97 20 123 18
82 30 294 18 310 -14 16 -56 15 -174 -4z m87 -122 c-1 -36 -7 -81 -13 -100 -6
-20 -13 -78 -15 -130 -7 -130 -15 -144 -105 -163 -49 -11 -80 -13 -97 -7 -24
9 -24 11 -17 92 3 45 11 97 17 115 5 18 7 39 4 48 -8 21 12 164 25 180 17 20
63 30 138 29 l66 0 -3 -64z"/>
<path d="M5795 6178 c-27 -5 -79 -17 -115 -27 l-65 -17 -7 -139 c-4 -77 -10
-156 -14 -175 -4 -19 -8 -69 -9 -110 -1 -41 -7 -113 -14 -160 -6 -46 -7 -88
-2 -93 4 -4 23 0 42 11 31 17 35 24 41 78 19 171 25 205 36 217 7 6 50 19 95
28 l82 15 3 48 3 49 -48 -8 c-26 -5 -66 -9 -88 -9 l-40 -1 -3 45 c-2 25 -1 64
3 88 7 49 26 60 140 82 76 15 85 21 85 63 0 25 -3 27 -37 26 -21 -1 -60 -6
-88 -11z"/>
<path d="M5340 6070 c-12 -7 -19 -64 -32 -277 -10 -147 -20 -305 -24 -349 -4
-53 -3 -84 4 -88 6 -3 27 3 46 15 36 21 36 21 36 92 0 40 5 106 11 147 6 41
12 116 14 165 1 50 4 137 6 195 l3 105 -24 3 c-14 1 -32 -2 -40 -8z"/>
<path d="M4871 5939 l-33 -10 2 -182 c1 -100 2 -192 1 -204 0 -13 0 -40 1 -60
0 -21 -5 -89 -12 -151 -6 -62 -9 -119 -6 -127 4 -12 14 -10 54 10 26 13 85 36
130 50 l82 26 0 51 c0 43 -2 50 -17 45 -10 -3 -46 -14 -81 -24 -72 -20 -83
-14 -76 41 19 156 22 196 19 231 -1 22 -3 102 -4 178 -1 148 1 143 -60 126z"/>
<path d="M8660 5394 c-25 -2 -115 -8 -200 -14 -267 -18 -402 -31 -485 -45 -44
-8 -141 -21 -215 -30 -74 -9 -212 -28 -306 -41 -123 -17 -215 -24 -331 -24
-232 0 -462 -21 -763 -70 -30 -4 -93 -14 -140 -20 -156 -22 -228 -35 -520 -97
-66 -14 -355 -113 -570 -196 -8 -3 -44 -15 -80 -26 -59 -18 -99 -34 -228 -92
-50 -23 -251 -89 -271 -89 -41 0 -302 -101 -441 -170 -52 -26 -139 -66 -193
-90 -168 -73 -207 -114 -207 -215 0 -96 41 -169 173 -304 62 -64 124 -134 138
-156 14 -22 37 -58 51 -81 15 -23 54 -63 89 -90 112 -88 168 -152 186 -213 20
-70 69 -121 154 -160 88 -41 442 -93 639 -94 149 -2 183 6 305 66 125 61 256
87 438 87 123 -1 228 -19 322 -55 122 -48 158 -56 260 -65 109 -9 170 -1 245
33 25 11 92 31 150 44 131 30 180 43 205 54 53 22 115 29 223 27 116 -3 119
-2 178 28 71 38 170 105 295 200 52 39 110 79 129 90 19 10 37 21 40 24 3 3
21 17 40 30 19 13 103 92 186 175 130 130 213 220 367 400 70 82 157 214 220
335 112 216 252 494 264 525 49 121 56 189 25 240 -11 17 -39 41 -63 54 -38
21 -59 25 -154 27 -60 1 -130 0 -155 -2z m-2622 -382 l3 -72 37 0 c50 0 203
-26 271 -46 149 -42 314 -160 416 -297 53 -69 122 -211 149 -302 10 -33 20
-66 22 -73 2 -8 13 -16 24 -19 24 -6 26 -26 5 -43 -8 -7 -15 -21 -15 -32 0
-10 -6 -21 -14 -24 -21 -8 -32 -84 -15 -95 26 -16 101 -9 176 17 41 14 77 23
80 20 13 -13 -9 -35 -64 -62 -49 -24 -70 -29 -137 -29 l-79 0 -19 -44 c-10
-23 -27 -56 -39 -72 -18 -25 -18 -30 -5 -35 9 -3 48 4 88 17 40 13 79 25 86
27 6 2 12 -3 12 -11 0 -8 -28 -29 -62 -47 -53 -29 -72 -33 -133 -33 -53 0 -81
5 -114 22 l-43 23 -44 -31 c-86 -62 -174 -76 -253 -41 -24 11 -47 20 -51 20
-4 0 -31 -16 -60 -35 -88 -59 -163 -69 -248 -34 l-50 21 -40 -27 c-22 -15 -67
-35 -99 -45 -43 -13 -58 -23 -58 -36 0 -25 -47 -33 -200 -33 -123 -1 -152 6
-142 31 7 19 106 30 212 23 l80 -6 -55 26 c-30 14 -61 32 -70 40 -14 13 -31
10 -136 -26 -93 -31 -131 -39 -174 -37 -41 2 -55 7 -55 18 0 8 11 18 25 21 14
4 75 22 137 39 81 24 122 31 150 26 21 -3 54 -7 73 -8 34 -2 35 -1 38 35 l3
36 -79 -6 c-87 -6 -180 10 -189 34 -3 7 -3 16 -1 19 3 2 59 6 124 7 101 3 132
8 209 34 178 60 225 81 225 100 0 17 4 17 -103 -8 -111 -26 -219 -23 -242 7
-21 28 -18 34 14 34 46 0 118 101 171 240 7 19 24 59 36 87 37 82 72 200 89
298 20 116 44 194 67 224 14 18 15 27 7 37 -16 20 -46 17 -96 -7 -49 -23 -82
-20 -113 11 -26 26 -25 39 5 50 14 5 42 27 63 49 23 24 53 43 79 50 22 6 52
20 65 31 41 35 53 23 56 -58z m1312 -800 c0 -5 -8 -16 -18 -25 -56 -50 -185
-65 -264 -29 -81 35 -58 53 39 31 48 -11 76 -8 178 21 41 11 65 12 65 2z
m-1850 -242 c0 -29 -114 -71 -198 -73 -93 -1 -100 19 -9 26 45 3 97 15 133 30
69 29 74 30 74 17z m1350 -315 c0 -20 -104 -67 -161 -73 -54 -5 -149 24 -149
45 0 10 10 11 43 6 72 -13 140 -8 187 14 54 26 80 28 80 8z m-355 -34 c7 -13
-50 -55 -103 -76 -71 -29 -212 -2 -212 40 0 13 14 14 93 9 77 -5 101 -2 147
14 65 24 67 25 75 13z m-522 -38 c56 -3 110 0 127 6 36 12 61 5 53 -15 -9 -25
-65 -47 -133 -53 -54 -5 -65 -9 -62 -23 7 -43 -225 -50 -319 -9 l-44 18 -66
-62 c-73 -69 -140 -99 -206 -93 -48 4 -59 34 -16 43 63 14 147 52 190 88 27
22 56 37 72 37 15 0 32 5 38 11 9 9 32 9 90 1 116 -16 213 -22 213 -13 0 4
-19 14 -42 21 -55 17 -84 40 -66 52 7 5 27 6 43 3 17 -4 74 -9 128 -12z m1075
-70 c-4 -25 -99 -70 -161 -78 -40 -5 -65 -2 -110 15 -33 12 -56 27 -54 33 4
12 20 12 117 2 43 -4 69 0 120 18 82 30 92 31 88 10z m-960 -34 c102 -28 455
-37 512 -12 78 33 80 34 87 17 7 -18 -15 -37 -82 -69 -64 -32 -148 -34 -207
-5 -50 24 -57 24 -94 5 -16 -8 -39 -15 -51 -15 -13 0 -23 -4 -23 -10 0 -17 82
-33 195 -39 85 -5 110 -9 110 -20 0 -20 -60 -39 -125 -40 -100 -2 -230 46
-230 83 0 8 -15 19 -32 26 -154 56 -176 68 -164 89 9 15 14 14 104 -10z"/>
<path d="M6056 4768 c7 -85 23 -185 46 -293 19 -90 41 -218 53 -308 18 -137
95 65 95 250 0 89 -18 151 -72 251 -34 63 -107 162 -119 162 -5 0 -6 -28 -3
-62z"/>
<path d="M6620 4118 c-67 -31 -115 -49 -225 -83 -66 -21 -135 -42 -152 -47
-24 -6 -33 -15 -33 -30 0 -19 4 -20 53 -15 106 11 417 85 560 134 90 31 90 51
0 32 -44 -9 -70 -10 -99 -1 -21 6 -48 13 -59 16 -11 3 -31 0 -45 -6z"/>
<path d="M6108 3948 c-16 -5 -28 -14 -28 -19 0 -14 46 -10 59 5 16 19 2 25
-31 14z"/>
<path d="M5932 3920 c-64 -32 -79 -50 -39 -50 25 0 106 21 152 40 l30 12 -25
13 c-36 20 -48 19 -118 -15z"/>
<path d="M8752 4235 c-12 -15 -24 -35 -27 -46 -4 -10 -13 -19 -22 -19 -13 0
-13 -3 -3 -15 17 -21 37 -3 62 53 23 52 18 63 -10 27z"/>
<path d="M8673 4233 c-17 -6 -16 -33 1 -33 20 0 40 26 24 32 -7 3 -19 3 -25 1z"/>
<path d="M8623 4098 c-12 -19 -33 -60 -33 -64 0 -2 6 -4 13 -3 17 0 60 57 52
69 -8 14 -22 13 -32 -2z"/>
<path d="M8560 4045 c0 -8 5 -15 10 -15 6 0 10 7 10 15 0 8 -4 15 -10 15 -5 0
-10 -7 -10 -15z"/>
<path d="M8536 4005 c-3 -8 -1 -15 4 -15 6 0 10 7 10 15 0 8 -2 15 -4 15 -2 0
-6 -7 -10 -15z"/>
<path d="M7830 7260 c-22 -22 -28 -64 -8 -58 7 3 21 18 31 35 22 38 7 53 -23
23z"/>
<path d="M8090 7249 c0 -5 5 -7 10 -4 6 3 10 8 10 11 0 2 -4 4 -10 4 -5 0 -10
-5 -10 -11z"/>
<path d="M6935 17190 c4 -6 11 -8 16 -5 14 9 11 15 -7 15 -8 0 -12 -5 -9 -10z"/>
<path d="M7000 17092 c0 -15 48 -33 56 -21 4 6 0 15 -7 20 -18 11 -49 12 -49
1z"/>
<path d="M7010 17005 c0 -8 9 -15 20 -15 24 0 27 15 4 24 -22 9 -24 8 -24 -9z"/>
<path d="M6966 16930 c4 -14 8 -35 7 -47 -1 -14 5 -23 13 -23 19 0 14 38 -10
70 l-18 25 8 -25z"/>
<path d="M7060 16874 c0 -14 4 -23 10 -19 6 3 10 15 10 26 0 10 -4 19 -10 19
-5 0 -10 -12 -10 -26z"/>
<path d="M6966 16602 c-2 -4 4 -9 15 -9 10 -1 19 2 19 8 0 11 -27 12 -34 1z"/>
<path d="M5777 16476 c-6 -15 1 -26 15 -26 11 0 10 27 -1 34 -5 3 -11 0 -14
-8z"/>
<path d="M5980 16416 c0 -7 7 -19 15 -26 20 -16 38 -1 29 23 -7 20 -44 23 -44
3z"/>
<path d="M6960 16420 c0 -5 9 -10 20 -10 11 0 20 5 20 10 0 6 -9 10 -20 10
-11 0 -20 -4 -20 -10z"/>
<path d="M6478 15908 c9 -9 15 -9 24 0 9 9 7 12 -12 12 -19 0 -21 -3 -12 -12z"/>
<path d="M7104 15879 c-18 -20 -18 -21 1 -35 10 -8 23 -14 28 -14 4 0 5 -9 2
-20 -3 -11 -3 -20 2 -20 12 0 31 69 26 91 -7 25 -35 24 -59 -2z"/>
<path d="M7046 15801 c-4 -6 -2 -11 3 -11 6 0 11 -9 11 -20 0 -26 6 -25 36 5
14 14 19 25 12 25 -7 0 -23 3 -34 6 -12 3 -25 1 -28 -5z"/>
<path d="M7060 15695 c0 -8 -5 -15 -11 -15 -5 0 -7 -4 -4 -10 7 -11 75 -14 75
-4 0 9 -41 44 -52 44 -4 0 -8 -7 -8 -15z"/>
<path d="M5395 15360 c-20 -32 25 -100 66 -100 17 0 149 -124 149 -139 0 -5
18 -16 40 -26 22 -10 47 -26 56 -36 20 -22 81 -33 135 -24 39 7 40 8 33 38 -4
18 -7 51 -6 75 0 23 -4 42 -10 42 -11 0 -77 47 -98 71 -24 26 -188 87 -267 99
-88 12 -90 12 -98 0z"/>
<path d="M5788 14846 c-30 -10 -39 -46 -13 -46 8 0 27 -14 42 -31 25 -27 72
-59 88 -59 3 0 5 6 5 14 0 12 4 12 30 0 17 -9 30 -21 30 -29 0 -7 9 -23 20
-36 l19 -24 1 22 c1 61 -105 186 -165 194 -16 3 -42 0 -57 -5z"/>
<path d="M5235 14777 c-30 -23 -9 -36 60 -35 49 0 65 4 65 14 0 10 -13 14 -43
14 -24 0 -48 5 -53 10 -7 7 -16 6 -29 -3z"/>
<path d="M5616 14656 c3 -8 12 -17 21 -20 11 -5 13 -2 9 10 -3 8 -6 18 -6 20
0 2 -7 4 -15 4 -8 0 -12 -6 -9 -14z"/>
<path d="M5685 14610 c4 -6 11 -8 16 -5 14 9 11 15 -7 15 -8 0 -12 -5 -9 -10z"/>
</g>
</svg>
